<svg width="19" height="19" viewBox="0 0 19 19" fill="none" xmlns="http://www.w3.org/2000/svg">
<path d="M16.8393 8.52409V3.2412C16.8393 2.16696 15.9654 1.293 14.8911 1.293H4.10879C3.03454 1.293 2.16066 2.16696 2.16066 3.2412V8.52409C0.922836 8.82186 0 9.93763 0 11.2655V15.2059C0 15.5185 0.25342 15.7719 0.566029 15.7719H2.16062V17.1409C2.16062 17.4535 2.41404 17.707 2.72665 17.707C3.03926 17.707 3.29268 17.4535 3.29268 17.1409V15.7719H15.7072V17.1409C15.7072 17.4535 15.9607 17.707 16.2733 17.707C16.5859 17.707 16.8393 17.4535 16.8393 17.1409V15.7719H18.4339C18.7465 15.7719 18.9999 15.5185 18.9999 15.2059V11.2655C19 9.93763 18.0772 8.82186 16.8393 8.52409ZM3.29272 3.2412C3.29272 2.79122 3.65884 2.42509 4.10879 2.42509H14.8912C15.3412 2.42509 15.7073 2.79122 15.7073 3.2412V8.4455H13.8368V7.5525C13.8368 6.07295 12.6331 4.86927 11.1536 4.86927H7.84652C6.36697 4.86927 5.16329 6.07298 5.16329 7.5525V8.44546H3.29272V3.2412ZM12.7047 7.5525V8.44546H6.29527V7.5525C6.29527 6.69716 6.99111 6.00133 7.84644 6.00133H11.1535C12.0088 6.00129 12.7047 6.6972 12.7047 7.5525ZM1.13206 14.6399V11.2655C1.13206 10.3348 1.88928 9.57756 2.82002 9.57756H16.1799C17.1107 9.57756 17.8679 10.3348 17.8679 11.2655V14.6399H1.13206Z" fill="#6C4B76"/>
</svg>
