<svg width="40" height="40" viewBox="0 0 40 40" fill="none" xmlns="http://www.w3.org/2000/svg">
<circle opacity="0.5" cx="20" cy="20" r="19.5" stroke="#C4C7C8"/>
<g clip-path="url(#clip0_454_2201)">
<path d="M20.0477 27.608C18.8324 27.608 17.8438 26.6257 17.8438 25.4182C17.8438 24.2108 18.8324 23.2284 20.0477 23.2284C21.2629 23.2284 22.2516 24.2108 22.2516 25.4182C22.2516 26.6257 21.2629 27.608 20.0477 27.608ZM20.0477 24.6262C19.6081 24.6262 19.2505 24.9815 19.2505 25.4182C19.2505 25.855 19.6081 26.2103 20.0477 26.2103C20.4872 26.2103 20.8448 25.855 20.8448 25.4182C20.8448 24.9815 20.4872 24.6262 20.0477 24.6262Z" fill="#6C4B76"/>
<path d="M23.8673 22.3684C23.6873 22.3684 23.5072 22.3002 23.3699 22.1637C21.5379 20.3434 18.5571 20.3435 16.7252 22.1637C16.4505 22.4366 16.0051 22.4366 15.7304 22.1637C15.4557 21.8907 15.4557 21.4483 15.7304 21.1753C18.1109 18.8101 21.9841 18.8101 24.3647 21.1753C24.6394 21.4482 24.6394 21.8907 24.3647 22.1637C24.2273 22.3002 24.0473 22.3684 23.8673 22.3684Z" fill="#6C4B76"/>
<path d="M13.6809 19.8383C13.5009 19.8383 13.3209 19.7701 13.1836 19.6335C12.9089 19.3606 12.9089 18.9181 13.1836 18.6452C15.0169 16.8236 17.4545 15.8204 20.0472 15.8204C22.6399 15.8204 25.0775 16.8236 26.9108 18.6452C27.1855 18.9181 27.1855 19.3606 26.9108 19.6335C26.6362 19.9064 26.1908 19.9065 25.9161 19.6335C24.3485 18.076 22.2642 17.2182 20.0472 17.2182C17.8302 17.2182 15.7459 18.076 14.1783 19.6335C14.0409 19.77 13.8609 19.8383 13.6809 19.8383Z" fill="#6C4B76"/>
<path d="M29.0664 17.156C28.8863 17.156 28.7063 17.0878 28.569 16.9513C26.2626 14.6597 23.2362 13.3976 20.0474 13.3976C16.8587 13.3976 13.8324 14.6597 11.5259 16.9513C11.2513 17.2242 10.8059 17.2242 10.5312 16.9513C10.2565 16.6784 10.2565 16.2359 10.5312 15.963C13.1033 13.4073 16.4829 11.9999 20.0474 11.9999C23.6119 11.9999 26.9915 13.4073 29.5637 15.963C29.8384 16.2359 29.8384 16.6784 29.5637 16.9513C29.4264 17.0878 29.2463 17.156 29.0664 17.156Z" fill="#6C4B76"/>
</g>
<defs>
<clipPath id="clip0_454_2201">
<rect width="20" height="16" fill="white" transform="translate(10 12)"/>
</clipPath>
</defs>
</svg>
