<svg width="24" height="21" viewBox="0 0 24 21" fill="none" xmlns="http://www.w3.org/2000/svg">
<path d="M16.0492 11.2195C14.9692 9.53479 13.1299 8.52881 11.1289 8.52881C9.12814 8.52881 7.28866 9.53479 6.20889 11.2195L3.6066 15.2792C3.17483 15.9528 2.97561 16.7308 3.03036 17.529C3.08511 18.3273 3.38888 19.0707 3.90872 19.6792C4.42892 20.2875 5.1163 20.7031 5.89651 20.8815C6.67673 21.0596 7.47653 20.9836 8.20932 20.6616L8.25711 20.6403C10.1012 19.8455 12.2089 19.8526 14.0484 20.6616C14.5228 20.8701 15.0254 20.9756 15.5326 20.9756C15.8084 20.9756 16.0858 20.9443 16.3606 20.8817C17.1408 20.7035 17.8282 20.2878 18.3486 19.6796C18.8686 19.0713 19.1726 18.3277 19.2275 17.5294C19.2824 16.7308 19.0832 15.9528 18.6515 15.279L16.0492 11.2195ZM17.2794 18.7651C16.6175 19.5389 15.5467 19.7836 14.6147 19.3738C13.5069 18.8865 12.3178 18.643 11.1284 18.643C9.94003 18.643 8.75113 18.8864 7.64407 19.373L7.61258 19.387C6.68771 19.7781 5.63266 19.5303 4.97806 18.7651C4.31686 17.9911 4.24161 16.8954 4.79092 16.0383L7.3934 11.9787C8.21335 10.6995 9.60971 9.93579 11.1289 9.93579C12.6482 9.93579 14.0447 10.6995 14.8648 11.9787L17.4669 16.0381C18.0164 16.8956 17.941 17.9915 17.2794 18.7651Z" fill="#6C4B76"/>
<path d="M4.30758 11.2143C5.08175 10.917 5.66988 10.2931 5.96376 9.45763C6.24318 8.66258 6.22029 7.765 5.89894 6.93004C5.57741 6.09563 4.99257 5.41448 4.25228 5.01183C3.47426 4.58904 2.61971 4.52019 1.84682 4.8181C0.29189 5.41594 -0.421672 7.33745 0.256367 9.1024C0.797993 10.5072 2.06124 11.394 3.3384 11.394C3.66451 11.394 3.99154 11.3361 4.30758 11.2143ZM1.56923 8.59703C1.1697 7.55699 1.52071 6.45067 2.35219 6.13097C2.50234 6.07311 2.66109 6.04436 2.82314 6.04436C3.07326 6.04436 3.33162 6.11266 3.58028 6.24797C4.02742 6.49095 4.38466 6.91283 4.58608 7.43559C4.78731 7.95873 4.80526 8.51097 4.63643 8.99089C4.48171 9.43071 4.18563 9.75408 3.80294 9.90111L3.8022 9.90148C2.97182 10.2215 1.97005 9.63616 1.56923 8.59703Z" fill="#6C4B76"/>
<path d="M9.35699 8.03375C11.3008 8.03375 12.8823 6.23199 12.8823 4.01733C12.8823 1.80212 11.3008 0 9.35699 0C7.41333 0 5.83203 1.80212 5.83203 4.01733C5.83203 6.23199 7.41333 8.03375 9.35699 8.03375ZM9.35699 1.4068C10.525 1.4068 11.4755 2.57794 11.4755 4.01733C11.4755 5.45618 10.525 6.62695 9.35699 6.62695C8.18896 6.62695 7.23883 5.45618 7.23883 4.01733C7.23883 2.57794 8.18896 1.4068 9.35699 1.4068Z" fill="#6C4B76"/>
<path d="M15.4438 9.02093H15.444C15.743 9.12018 16.0481 9.1676 16.3518 9.1676C17.7694 9.1676 19.151 8.1358 19.6781 6.55011C19.9817 5.63733 19.9618 4.67218 19.6219 3.83264C19.2663 2.95392 18.6073 2.31598 17.7662 2.03619C16.925 1.75677 16.0147 1.87323 15.2038 2.36432C14.4291 2.83362 13.8354 3.5946 13.5324 4.50738C12.8924 6.43292 13.7499 8.4577 15.4438 9.02093ZM14.8674 4.95105C15.0653 4.35504 15.4436 3.86395 15.9327 3.56769C16.3852 3.29358 16.8788 3.22381 17.3225 3.37121C17.766 3.5188 18.1194 3.86999 18.3178 4.36035C18.5323 4.89026 18.5414 5.51025 18.3431 6.10626C17.9478 7.29571 16.8462 8.00433 15.8877 7.68591C14.9298 7.36731 14.4721 6.1405 14.8674 4.95105Z" fill="#6C4B76"/>
<path d="M22.8698 8.5518L22.8693 8.55125C21.5288 7.56101 19.5239 7.99021 18.3999 9.50852C17.2769 11.0276 17.4525 13.0697 18.791 14.0607C19.2791 14.4223 19.8559 14.5952 20.4462 14.5952C21.4751 14.5952 22.5456 14.07 23.2609 13.1043C24.3839 11.5853 24.2085 9.54313 22.8698 8.5518ZM22.1303 12.2674C21.4665 13.1633 20.3443 13.4605 19.6281 12.93C18.9126 12.4003 18.869 11.2405 19.5309 10.3451C19.9709 9.75077 20.6136 9.42008 21.206 9.42008C21.5055 9.42008 21.7923 9.50468 22.0332 9.68284C22.7483 10.2131 22.7916 11.3725 22.1303 12.2674Z" fill="#6C4B76"/>
</svg>
