<svg width="20" height="16" viewBox="0 0 20 16" fill="none" xmlns="http://www.w3.org/2000/svg">
<g clip-path="url(#clip0_454_2204)">
<path d="M10.0477 15.608C8.83242 15.608 7.84375 14.6257 7.84375 13.4182C7.84375 12.2108 8.83242 11.2284 10.0477 11.2284C11.2629 11.2284 12.2516 12.2108 12.2516 13.4182C12.2516 14.6257 11.2629 15.608 10.0477 15.608ZM10.0477 12.6262C9.60811 12.6262 9.25051 12.9815 9.25051 13.4182C9.25051 13.855 9.60811 14.2103 10.0477 14.2103C10.4872 14.2103 10.8448 13.855 10.8448 13.4182C10.8448 12.9815 10.4872 12.6262 10.0477 12.6262Z" fill="#6C4B76"/>
<path d="M13.8673 10.3684C13.6873 10.3684 13.5072 10.3002 13.3699 10.1637C11.5379 8.34345 8.55713 8.34349 6.72516 10.1637C6.45051 10.4366 6.00513 10.4366 5.73043 10.1637C5.45574 9.89074 5.45574 9.44826 5.73043 9.17533C8.11091 6.81013 11.9841 6.81013 14.3647 9.17533C14.6394 9.44822 14.6394 9.89074 14.3647 10.1637C14.2273 10.3002 14.0473 10.3684 13.8673 10.3684Z" fill="#6C4B76"/>
<path d="M3.6809 7.83826C3.50088 7.83826 3.32086 7.77005 3.18356 7.63354C2.90887 7.36061 2.90887 6.91813 3.18356 6.6452C5.0169 4.82362 7.45449 3.82042 10.0472 3.82042C12.6399 3.82042 15.0775 4.82362 16.9108 6.6452C17.1855 6.91813 17.1855 7.36061 16.9108 7.63354C16.6362 7.90643 16.1908 7.90647 15.9161 7.63354C14.3485 6.076 12.2642 5.21816 10.0472 5.21816C7.83023 5.21816 5.74593 6.076 4.17828 7.63354C4.04093 7.77001 3.86091 7.83826 3.6809 7.83826Z" fill="#6C4B76"/>
<path d="M19.0664 5.15602C18.8863 5.15602 18.7063 5.08781 18.569 4.9513C16.2626 2.65971 13.2362 1.39765 10.0474 1.39765C6.85869 1.39765 3.83237 2.65971 1.52594 4.9513C1.25129 5.22423 0.805909 5.22423 0.531215 4.9513C0.256522 4.67837 0.256522 4.23589 0.531215 3.96296C3.10334 1.40734 6.48294 -9.15527e-05 10.0474 -9.15527e-05C13.6119 -9.15527e-05 16.9915 1.40734 19.5637 3.96301C19.8384 4.23594 19.8384 4.67842 19.5637 4.95135C19.4264 5.08781 19.2463 5.15602 19.0664 5.15602Z" fill="#6C4B76"/>
</g>
<defs>
<clipPath id="clip0_454_2204">
<rect width="20" height="16" fill="white"/>
</clipPath>
</defs>
</svg>
