<svg width="22" height="22" viewBox="0 0 22 22" fill="none" xmlns="http://www.w3.org/2000/svg">
<path d="M10.9993 11.6872C8.09352 11.6872 5.72852 9.32218 5.72852 6.41634C5.72852 3.51051 8.09352 1.14551 10.9993 1.14551C13.9052 1.14551 16.2702 3.51051 16.2702 6.41634C16.2702 9.32218 13.9052 11.6872 10.9993 11.6872ZM10.9993 2.52051C8.85435 2.52051 7.10352 4.27134 7.10352 6.41634C7.10352 8.56134 8.85435 10.3122 10.9993 10.3122C13.1444 10.3122 14.8952 8.56134 14.8952 6.41634C14.8952 4.27134 13.1444 2.52051 10.9993 2.52051Z" fill="#6C4B76"/>
<path d="M18.8733 20.8542C18.4974 20.8542 18.1858 20.5425 18.1858 20.1667C18.1858 17.0042 14.9592 14.4375 10.9992 14.4375C7.03916 14.4375 3.8125 17.0042 3.8125 20.1667C3.8125 20.5425 3.50083 20.8542 3.125 20.8542C2.74917 20.8542 2.4375 20.5425 2.4375 20.1667C2.4375 16.2525 6.27832 13.0625 10.9992 13.0625C15.72 13.0625 19.5608 16.2525 19.5608 20.1667C19.5608 20.5425 19.2491 20.8542 18.8733 20.8542Z" fill="#6C4B76"/>
</svg>
