<svg width="20" height="20" viewBox="0 0 20 20" fill="none" xmlns="http://www.w3.org/2000/svg">
<g clip-path="url(#clip0_514_3890)">
<path d="M15.3182 19.1115H4.65153C2.2015 19.1115 0.207031 17.117 0.207031 14.667V10.667H19.7625V14.667C19.7625 17.117 17.7681 19.1115 15.3182 19.1115ZM1.09587 11.5558V14.667C1.09587 16.6281 2.69043 18.2225 4.65153 18.2225H15.3182C17.2793 18.2225 18.8737 16.6281 18.8737 14.667V11.5558H1.09587Z" fill="#6C4B76"/>
<path d="M5.54297 18.667H6.4318V20.0003H5.54297V18.667Z" fill="#6C4B76"/>
<path d="M13.543 18.667H14.4318V20.0003H13.543V18.667Z" fill="#6C4B76"/>
<path d="M3.76383 11.1112H2.875V3.11117C2.875 1.39437 4.26937 0 5.98617 0C7.7028 0 9.09717 1.39437 9.09717 3.11117V3.5555H8.20833V3.11117C8.20833 1.8833 7.21387 0.888835 5.98617 0.888835C4.7583 0.888835 3.76383 1.8833 3.76383 3.11117V11.1112Z" fill="#6C4B76"/>
<path d="M11.7651 7.11115H5.54297V6.22215C5.54297 4.50551 6.93734 3.11115 8.65413 3.11115C10.3708 3.11115 11.7651 4.50551 11.7651 6.22215V7.11115ZM6.4318 6.22215H10.8763C10.8763 4.99445 9.88184 3.99998 8.65413 3.99998C7.42627 3.99998 6.4318 4.99445 6.4318 6.22215Z" fill="#6C4B76"/>
</g>
<defs>
<clipPath id="clip0_514_3890">
<rect width="20" height="20" fill="white"/>
</clipPath>
</defs>
</svg>
