<svg width="19" height="19" viewBox="0 0 19 19" fill="none" xmlns="http://www.w3.org/2000/svg">
<path d="M15.7656 10.955C15.5874 10.955 15.4165 11.0258 15.2905 11.1518C15.1645 11.2778 15.0938 11.4487 15.0938 11.6269V14.1464L5.29109 4.34375H7.81063C7.98882 4.34375 8.15971 4.27296 8.28571 4.14696C8.41171 4.02096 8.4825 3.85007 8.4825 3.67188C8.4825 3.49368 8.41171 3.32279 8.28571 3.19679C8.15971 3.07079 7.98882 3 7.81063 3H3.46359C3.34064 3 3.22272 3.04884 3.13578 3.13578C3.04884 3.22272 3 3.34064 3 3.46359V7.81063C3 7.98882 3.07079 8.15971 3.19679 8.28571C3.32279 8.41171 3.49368 8.4825 3.67188 8.4825C3.85007 8.4825 4.02096 8.41171 4.14696 8.28571C4.27296 8.15971 4.34375 7.98882 4.34375 7.81063V5.29109L14.1464 15.0938H11.6269C11.4487 15.0938 11.2778 15.1645 11.1518 15.2905C11.0258 15.4165 10.955 15.5874 10.955 15.7656C10.955 15.9438 11.0258 16.1147 11.1518 16.2407C11.2778 16.3667 11.4487 16.4375 11.6269 16.4375H15.9739C16.0969 16.4375 16.2148 16.3887 16.3017 16.3017C16.3887 16.2148 16.4375 16.0969 16.4375 15.9739V11.6269C16.4375 11.4487 16.3667 11.2778 16.2407 11.1518C16.1147 11.0258 15.9438 10.955 15.7656 10.955Z" fill="#6C4B76"/>
<path d="M3.67188 10.955C3.85007 10.955 4.02096 11.0258 4.14696 11.1518C4.27296 11.2778 4.34375 11.4487 4.34375 11.6269V14.1464L14.1464 4.34375H11.6269C11.4487 4.34375 11.2778 4.27296 11.1518 4.14696C11.0258 4.02096 10.955 3.85007 10.955 3.67188C10.955 3.49368 11.0258 3.32279 11.1518 3.19679C11.2778 3.07079 11.4487 3 11.6269 3H15.9739C16.0969 3 16.2148 3.04884 16.3017 3.13578C16.3887 3.22272 16.4375 3.34064 16.4375 3.46359V7.81063C16.4375 7.98882 16.3667 8.15971 16.2407 8.28571C16.1147 8.41171 15.9438 8.4825 15.7656 8.4825C15.5874 8.4825 15.4165 8.41171 15.2905 8.28571C15.1645 8.15971 15.0938 7.98882 15.0938 7.81063V5.29109L5.29109 15.0938H7.81063C7.98882 15.0938 8.15971 15.1645 8.28571 15.2905C8.41171 15.4165 8.4825 15.5874 8.4825 15.7656C8.4825 15.9438 8.41171 16.1147 8.28571 16.2407C8.15971 16.3667 7.98882 16.4375 7.81063 16.4375H3.46359C3.34064 16.4375 3.22272 16.3887 3.13578 16.3017C3.04884 16.2148 3 16.0969 3 15.9739V11.6269C3 11.4487 3.07079 11.2778 3.19679 11.1518C3.32279 11.0258 3.49368 10.955 3.67188 10.955Z" fill="#6C4B76"/>
</svg>
