<svg width="40" height="40" viewBox="0 0 40 40" fill="none" xmlns="http://www.w3.org/2000/svg">
<circle opacity="0.5" cx="20" cy="20" r="19.5" stroke="#C4C7C8"/>
<path d="M19.9993 20.6872C17.0935 20.6872 14.7285 18.3222 14.7285 15.4163C14.7285 12.5105 17.0935 10.1455 19.9993 10.1455C22.9052 10.1455 25.2702 12.5105 25.2702 15.4163C25.2702 18.3222 22.9052 20.6872 19.9993 20.6872ZM19.9993 11.5205C17.8543 11.5205 16.1035 13.2713 16.1035 15.4163C16.1035 17.5613 17.8543 19.3122 19.9993 19.3122C22.1444 19.3122 23.8952 17.5613 23.8952 15.4163C23.8952 13.2713 22.1444 11.5205 19.9993 11.5205Z" fill="#6C4B76"/>
<path d="M27.8733 29.8542C27.4974 29.8542 27.1858 29.5425 27.1858 29.1667C27.1858 26.0042 23.9592 23.4375 19.9992 23.4375C16.0392 23.4375 12.8125 26.0042 12.8125 29.1667C12.8125 29.5425 12.5008 29.8542 12.125 29.8542C11.7492 29.8542 11.4375 29.5425 11.4375 29.1667C11.4375 25.2525 15.2783 22.0625 19.9992 22.0625C24.72 22.0625 28.5608 25.2525 28.5608 29.1667C28.5608 29.5425 28.2491 29.8542 27.8733 29.8542Z" fill="#6C4B76"/>
</svg>
