<svg width="40" height="40" viewBox="0 0 40 40" fill="none" xmlns="http://www.w3.org/2000/svg">
<circle opacity="0.5" cx="20" cy="20" r="19.5" stroke="#C4C7C8"/>
<path d="M25.7656 20.955C25.5874 20.955 25.4165 21.0258 25.2905 21.1518C25.1645 21.2778 25.0938 21.4487 25.0938 21.6269V24.1464L15.2911 14.3438H17.8106C17.9888 14.3438 18.1597 14.273 18.2857 14.147C18.4117 14.021 18.4825 13.8501 18.4825 13.6719C18.4825 13.4937 18.4117 13.3228 18.2857 13.1968C18.1597 13.0708 17.9888 13 17.8106 13H13.4636C13.3406 13 13.2227 13.0488 13.1358 13.1358C13.0488 13.2227 13 13.3406 13 13.4636V17.8106C13 17.9888 13.0708 18.1597 13.1968 18.2857C13.3228 18.4117 13.4937 18.4825 13.6719 18.4825C13.8501 18.4825 14.021 18.4117 14.147 18.2857C14.273 18.1597 14.3438 17.9888 14.3438 17.8106V15.2911L24.1464 25.0938H21.6269C21.4487 25.0938 21.2778 25.1645 21.1518 25.2905C21.0258 25.4165 20.955 25.5874 20.955 25.7656C20.955 25.9438 21.0258 26.1147 21.1518 26.2407C21.2778 26.3667 21.4487 26.4375 21.6269 26.4375H25.9739C26.0969 26.4375 26.2148 26.3887 26.3017 26.3017C26.3887 26.2148 26.4375 26.0969 26.4375 25.9739V21.6269C26.4375 21.4487 26.3667 21.2778 26.2407 21.1518C26.1147 21.0258 25.9438 20.955 25.7656 20.955Z" fill="#6C4B76"/>
<path d="M13.6719 20.955C13.8501 20.955 14.021 21.0258 14.147 21.1518C14.273 21.2778 14.3438 21.4487 14.3438 21.6269V24.1464L24.1464 14.3438H21.6269C21.4487 14.3438 21.2778 14.273 21.1518 14.147C21.0258 14.021 20.955 13.8501 20.955 13.6719C20.955 13.4937 21.0258 13.3228 21.1518 13.1968C21.2778 13.0708 21.4487 13 21.6269 13H25.9739C26.0969 13 26.2148 13.0488 26.3017 13.1358C26.3887 13.2227 26.4375 13.3406 26.4375 13.4636V17.8106C26.4375 17.9888 26.3667 18.1597 26.2407 18.2857C26.1147 18.4117 25.9438 18.4825 25.7656 18.4825C25.5874 18.4825 25.4165 18.4117 25.2905 18.2857C25.1645 18.1597 25.0938 17.9888 25.0938 17.8106V15.2911L15.2911 25.0938H17.8106C17.9888 25.0938 18.1597 25.1645 18.2857 25.2905C18.4117 25.4165 18.4825 25.5874 18.4825 25.7656C18.4825 25.9438 18.4117 26.1147 18.2857 26.2407C18.1597 26.3667 17.9888 26.4375 17.8106 26.4375H13.4636C13.3406 26.4375 13.2227 26.3887 13.1358 26.3017C13.0488 26.2148 13 26.0969 13 25.9739V21.6269C13 21.4487 13.0708 21.2778 13.1968 21.1518C13.3228 21.0258 13.4937 20.955 13.6719 20.955Z" fill="#6C4B76"/>
</svg>
