<svg width="40" height="40" viewBox="0 0 40 40" fill="none" xmlns="http://www.w3.org/2000/svg">
<circle opacity="0.5" cx="20" cy="20" r="19.5" stroke="#C4C7C8"/>
<path d="M24.0492 21.2195C22.9692 19.5348 21.1299 18.5288 19.1289 18.5288C17.1281 18.5288 15.2887 19.5348 14.2089 21.2195L11.6066 25.2792C11.1748 25.9528 10.9756 26.7308 11.0304 27.529C11.0851 28.3273 11.3889 29.0707 11.9087 29.6792C12.4289 30.2875 13.1163 30.7031 13.8965 30.8815C14.6767 31.0596 15.4765 30.9836 16.2093 30.6616L16.2571 30.6403C18.1012 29.8455 20.2089 29.8526 22.0484 30.6616C22.5228 30.8701 23.0254 30.9756 23.5326 30.9756C23.8084 30.9756 24.0858 30.9443 24.3606 30.8817C25.1408 30.7035 25.8282 30.2878 26.3486 29.6796C26.8686 29.0713 27.1726 28.3277 27.2275 27.5294C27.2824 26.7308 27.0832 25.9528 26.6515 25.279L24.0492 21.2195ZM25.2794 28.7651C24.6175 29.5389 23.5467 29.7836 22.6147 29.3738C21.5069 28.8865 20.3178 28.643 19.1284 28.643C17.94 28.643 16.7511 28.8864 15.6441 29.373L15.6126 29.387C14.6877 29.7781 13.6327 29.5303 12.9781 28.7651C12.3169 27.9911 12.2416 26.8954 12.7909 26.0383L15.3934 21.9787C16.2133 20.6995 17.6097 19.9358 19.1289 19.9358C20.6482 19.9358 22.0447 20.6995 22.8648 21.9787L25.4669 26.0381C26.0164 26.8956 25.941 27.9915 25.2794 28.7651Z" fill="#6C4B76"/>
<path d="M12.3076 21.2143C13.0817 20.917 13.6699 20.2931 13.9638 19.4576C14.2432 18.6626 14.2203 17.765 13.8989 16.93C13.5774 16.0956 12.9926 15.4145 12.2523 15.0118C11.4743 14.589 10.6197 14.5202 9.84682 14.8181C8.29189 15.4159 7.57833 17.3374 8.25637 19.1024C8.79799 20.5072 10.0612 21.394 11.3384 21.394C11.6645 21.394 11.9915 21.3361 12.3076 21.2143ZM9.56923 18.597C9.1697 17.557 9.52071 16.4507 10.3522 16.131C10.5023 16.0731 10.6611 16.0444 10.8231 16.0444C11.0733 16.0444 11.3316 16.1127 11.5803 16.248C12.0274 16.491 12.3847 16.9128 12.5861 17.4356C12.7873 17.9587 12.8053 18.511 12.6364 18.9909C12.4817 19.4307 12.1856 19.7541 11.8029 19.9011L11.8022 19.9015C10.9718 20.2215 9.97005 19.6362 9.56923 18.597Z" fill="#6C4B76"/>
<path d="M17.357 18.0338C19.3008 18.0338 20.8823 16.232 20.8823 14.0173C20.8823 11.8021 19.3008 10 17.357 10C15.4133 10 13.832 11.8021 13.832 14.0173C13.832 16.232 15.4133 18.0338 17.357 18.0338ZM17.357 11.4068C18.525 11.4068 19.4755 12.5779 19.4755 14.0173C19.4755 15.4562 18.525 16.627 17.357 16.627C16.189 16.627 15.2388 15.4562 15.2388 14.0173C15.2388 12.5779 16.189 11.4068 17.357 11.4068Z" fill="#6C4B76"/>
<path d="M23.4438 19.0209H23.444C23.743 19.1202 24.0481 19.1676 24.3518 19.1676C25.7694 19.1676 27.151 18.1358 27.6781 16.5501C27.9817 15.6373 27.9618 14.6722 27.6219 13.8326C27.2663 12.9539 26.6073 12.316 25.7662 12.0362C24.925 11.7568 24.0147 11.8732 23.2038 12.3643C22.4291 12.8336 21.8354 13.5946 21.5324 14.5074C20.8924 16.4329 21.7499 18.4577 23.4438 19.0209ZM22.8674 14.951C23.0653 14.355 23.4436 13.864 23.9327 13.5677C24.3852 13.2936 24.8788 13.2238 25.3225 13.3712C25.766 13.5188 26.1194 13.87 26.3178 14.3604C26.5323 14.8903 26.5414 15.5103 26.3431 16.1063C25.9478 17.2957 24.8462 18.0043 23.8877 17.6859C22.9298 17.3673 22.4721 16.1405 22.8674 14.951Z" fill="#6C4B76"/>
<path d="M30.8698 18.5518L30.8693 18.5512C29.5288 17.561 27.5239 17.9902 26.3999 19.5085C25.2769 21.0276 25.4525 23.0697 26.791 24.0607C27.2791 24.4223 27.8559 24.5952 28.4462 24.5952C29.4751 24.5952 30.5456 24.07 31.2609 23.1043C32.3839 21.5853 32.2085 19.5431 30.8698 18.5518ZM30.1303 22.2674C29.4665 23.1633 28.3443 23.4605 27.6281 22.93C26.9126 22.4003 26.869 21.2405 27.5309 20.3451C27.9709 19.7508 28.6136 19.4201 29.206 19.4201C29.5055 19.4201 29.7923 19.5047 30.0332 19.6828C30.7483 20.2131 30.7916 21.3725 30.1303 22.2674Z" fill="#6C4B76"/>
</svg>
