<svg width="40" height="40" viewBox="0 0 40 40" fill="none" xmlns="http://www.w3.org/2000/svg">
<circle opacity="0.5" cx="20" cy="20" r="19.5" stroke="#C4C7C8"/>
<g clip-path="url(#clip0_514_3886)">
<path d="M25.3182 29.1115H14.6515C12.2015 29.1115 10.207 27.117 10.207 24.667V20.667H29.7625V24.667C29.7625 27.117 27.7681 29.1115 25.3182 29.1115ZM11.0959 21.5558V24.667C11.0959 26.6281 12.6904 28.2225 14.6515 28.2225H25.3182C27.2793 28.2225 28.8737 26.6281 28.8737 24.667V21.5558H11.0959Z" fill="#6C4B76"/>
<path d="M15.543 28.667H16.4318V30.0003H15.543V28.667Z" fill="#6C4B76"/>
<path d="M23.543 28.667H24.4318V30.0003H23.543V28.667Z" fill="#6C4B76"/>
<path d="M13.7638 21.1112H12.875V13.1112C12.875 11.3944 14.2694 10 15.9862 10C17.7028 10 19.0972 11.3944 19.0972 13.1112V13.5555H18.2083V13.1112C18.2083 11.8833 17.2139 10.8888 15.9862 10.8888C14.7583 10.8888 13.7638 11.8833 13.7638 13.1112V21.1112Z" fill="#6C4B76"/>
<path d="M21.7651 17.1111H15.543V16.2221C15.543 14.5055 16.9373 13.1111 18.6541 13.1111C20.3708 13.1111 21.7651 14.5055 21.7651 16.2221V17.1111ZM16.4318 16.2221H20.8763C20.8763 14.9944 19.8818 14 18.6541 14C17.4263 14 16.4318 14.9944 16.4318 16.2221Z" fill="#6C4B76"/>
</g>
<defs>
<clipPath id="clip0_514_3886">
<rect width="20" height="20" fill="white" transform="translate(10 10)"/>
</clipPath>
</defs>
</svg>
