<svg width="40" height="40" viewBox="0 0 40 40" fill="none" xmlns="http://www.w3.org/2000/svg">
<circle opacity="0.5" cx="20" cy="20" r="19.5" stroke="#C4C7C8"/>
<path d="M27.8393 19.5241V14.2412C27.8393 13.167 26.9654 12.293 25.8911 12.293H15.1088C14.0345 12.293 13.1607 13.167 13.1607 14.2412V19.5241C11.9228 19.8219 11 20.9376 11 22.2655V26.2059C11 26.5185 11.2534 26.7719 11.566 26.7719H13.1606V28.1409C13.1606 28.4535 13.414 28.707 13.7266 28.707C14.0393 28.707 14.2927 28.4535 14.2927 28.1409V26.7719H26.7072V28.1409C26.7072 28.4535 26.9607 28.707 27.2733 28.707C27.5859 28.707 27.8393 28.4535 27.8393 28.1409V26.7719H29.4339C29.7465 26.7719 29.9999 26.5185 29.9999 26.2059V22.2655C30 20.9376 29.0772 19.8219 27.8393 19.5241ZM14.2927 14.2412C14.2927 13.7912 14.6588 13.4251 15.1088 13.4251H25.8912C26.3412 13.4251 26.7073 13.7912 26.7073 14.2412V19.4455H24.8368V18.5525C24.8368 17.0729 23.6331 15.8693 22.1536 15.8693H18.8465C17.367 15.8693 16.1633 17.073 16.1633 18.5525V19.4455H14.2927V14.2412ZM23.7047 18.5525V19.4455H17.2953V18.5525C17.2953 17.6972 17.9911 17.0013 18.8464 17.0013H22.1535C23.0088 17.0013 23.7047 17.6972 23.7047 18.5525ZM12.1321 25.6399V22.2655C12.1321 21.3348 12.8893 20.5776 13.82 20.5776H27.1799C28.1107 20.5776 28.8679 21.3348 28.8679 22.2655V25.6399H12.1321Z" fill="#6C4B76"/>
</svg>
