<svg width="20" height="20" viewBox="0 0 20 20" fill="none" xmlns="http://www.w3.org/2000/svg">
<path d="M15.8332 4.16669H14.9998V2.50002C14.9998 2.27901 14.912 2.06705 14.7558 1.91076C14.5995 1.75448 14.3875 1.66669 14.1665 1.66669C13.9455 1.66669 13.7335 1.75448 13.5772 1.91076C13.421 2.06705 13.3332 2.27901 13.3332 2.50002V4.16669H6.6665V2.50002C6.6665 2.27901 6.57871 2.06705 6.42243 1.91076C6.26615 1.75448 6.05418 1.66669 5.83317 1.66669C5.61216 1.66669 5.4002 1.75448 5.24392 1.91076C5.08764 2.06705 4.99984 2.27901 4.99984 2.50002V4.16669H4.1665C3.50346 4.16669 2.86758 4.43008 2.39874 4.89892C1.9299 5.36776 1.6665 6.00365 1.6665 6.66669V7.50002H18.3332V6.66669C18.3332 6.00365 18.0698 5.36776 17.6009 4.89892C17.1321 4.43008 16.4962 4.16669 15.8332 4.16669Z" fill="#949494"/>
<path d="M1.6665 15.8334C1.6665 16.4964 1.9299 17.1323 2.39874 17.6011C2.86758 18.07 3.50346 18.3334 4.1665 18.3334H15.8332C16.4962 18.3334 17.1321 18.07 17.6009 17.6011C18.0698 17.1323 18.3332 16.4964 18.3332 15.8334V9.16669H1.6665V15.8334Z" fill="#949494"/>
</svg>
