<svg width="26" height="25" viewBox="0 0 26 25" fill="none" xmlns="http://www.w3.org/2000/svg">
<g clip-path="url(#clip0_454_2044)">
<path d="M24.6683 5.72719C24.1692 5.20437 23.48 4.89544 22.6958 4.89544H18.751V4.84791C18.751 4.2538 18.5133 3.68346 18.1093 3.30323C17.7053 2.89924 17.1587 2.6616 16.5646 2.6616H9.43536C8.81749 2.6616 8.27091 2.89924 7.86692 3.30323C7.46293 3.70722 7.22529 4.2538 7.22529 4.84791V4.89544H3.30418C2.51996 4.89544 1.8308 5.20437 1.33175 5.72719C0.8327 6.22624 0.5 6.93916 0.5 7.69962V19.5342C0.5 20.3184 0.808935 21.0076 1.33175 21.5067C1.8308 22.0057 2.54373 22.3384 3.30418 22.3384H22.6958C23.48 22.3384 24.1692 22.0295 24.6683 21.5067C25.1673 21.0076 25.5 20.2947 25.5 19.5342V7.69962C25.5 6.9154 25.1911 6.22624 24.6683 5.72719ZM24.2643 19.5342H24.2405C24.2405 19.962 24.0741 20.3422 23.789 20.6274C23.5038 20.9125 23.1236 21.0789 22.6958 21.0789H3.30418C2.87643 21.0789 2.4962 20.9125 2.21103 20.6274C1.92586 20.3422 1.75951 19.962 1.75951 19.5342V7.69962C1.75951 7.27186 1.92586 6.89163 2.21103 6.60646C2.4962 6.32129 2.87643 6.15494 3.30418 6.15494H7.89068C8.24715 6.15494 8.53232 5.86977 8.53232 5.51331V4.82414C8.53232 4.56274 8.62738 4.3251 8.79373 4.15875C8.96008 3.9924 9.19772 3.89734 9.45913 3.89734H16.5646C16.826 3.89734 17.0637 3.9924 17.23 4.15875C17.3964 4.3251 17.4914 4.56274 17.4914 4.82414V5.51331C17.4914 5.86977 17.7766 6.15494 18.1331 6.15494H22.7196C23.1473 6.15494 23.5276 6.32129 23.8127 6.60646C24.0979 6.89163 24.2643 7.27186 24.2643 7.69962V19.5342Z" fill="white"/>
<path d="M13.0003 7.77091C11.3843 7.77091 9.91095 8.43631 8.86532 9.48194C7.79593 10.5513 7.1543 12.001 7.1543 13.6169C7.1543 15.2329 7.8197 16.7063 8.86532 17.7519C9.93472 18.8213 11.3843 19.4629 13.0003 19.4629C14.6163 19.4629 16.0897 18.7975 17.1353 17.7519C18.2047 16.6825 18.8463 15.2329 18.8463 13.6169C18.8463 12.001 18.1809 10.5276 17.1353 9.48194C16.0897 8.43631 14.6163 7.77091 13.0003 7.77091ZM16.2322 16.8726C15.4005 17.6806 14.2598 18.2034 13.0003 18.2034C11.7408 18.2034 10.6001 17.6806 9.76837 16.8726C8.93662 16.0409 8.43757 14.9002 8.43757 13.6407C8.43757 12.3812 8.96038 11.2405 9.76837 10.4087C10.6001 9.577 11.7408 9.07795 13.0003 9.07795C14.2598 9.07795 15.4005 9.60076 16.2322 10.4087C17.064 11.2405 17.563 12.3812 17.563 13.6407C17.5868 14.9002 17.064 16.0409 16.2322 16.8726Z" fill="white"/>
<path d="M21.4603 10.076C22.1035 10.076 22.6248 9.55471 22.6248 8.9116C22.6248 8.26849 22.1035 7.74715 21.4603 7.74715C20.8172 7.74715 20.2959 8.26849 20.2959 8.9116C20.2959 9.55471 20.8172 10.076 21.4603 10.076Z" fill="white"/>
</g>
<defs>
<clipPath id="clip0_454_2044">
<rect width="25" height="25" fill="white" transform="translate(0.5)"/>
</clipPath>
</defs>
</svg>
