<svg width="20" height="20" viewBox="0 0 20 20" fill="none" xmlns="http://www.w3.org/2000/svg">
<g clip-path="url(#clip0_505_313)">
<path d="M10.2003 10.3619C12.6198 10.3619 14.5813 8.40047 14.5813 5.98093C14.5813 3.5614 12.6198 1.59998 10.2003 1.59998C7.78076 1.59998 5.81934 3.5614 5.81934 5.98093C5.81934 8.40047 7.78076 10.3619 10.2003 10.3619Z" fill="#949494"/>
<path d="M11.1288 11.2382H9.27129C8.18164 11.2416 7.10334 11.4596 6.09796 11.8798C5.09257 12.3 4.17979 12.9141 3.41173 13.687C2.64368 14.46 2.03538 15.3766 1.62158 16.3846C1.20778 17.3927 0.996584 18.4723 1.00004 19.562C1.00004 19.6782 1.0462 19.7896 1.12836 19.8718C1.21052 19.9539 1.32195 20.0001 1.43814 20.0001H18.962C19.0836 19.989 19.1964 19.9322 19.2778 19.8411C19.3591 19.75 19.4028 19.6315 19.4001 19.5094C19.3954 17.3172 18.5225 15.216 16.9724 13.6659C15.4222 12.1157 13.3211 11.2428 11.1288 11.2382Z" fill="#949494"/>
</g>
<defs>
<clipPath id="clip0_505_313">
<rect width="20" height="20" fill="white"/>
</clipPath>
</defs>
</svg>
