<svg width="64" height="74" viewBox="0 0 64 74" fill="none" xmlns="http://www.w3.org/2000/svg">
<path d="M7.32748 61.2778L4.1797 52.8881H2.14711L7.32748 65.6524L12.5079 52.8881H10.4751L7.32748 61.2778Z" fill="white"/>
<path d="M16.0142 52.8881H14.1794V65.437H16.0142V52.8881Z" fill="white"/>
<path d="M20.5456 52.8881H18.7108V65.437H25.6897V63.6445H20.5456V52.8881Z" fill="white"/>
<path d="M32.3082 58.105H30.5453C29.4843 58.105 28.7105 57.3521 28.7105 56.348C28.7105 55.3439 29.4843 54.5911 30.5453 54.5911H34.2508V52.888H30.3292C29.8719 52.8858 29.4185 52.9736 28.9953 53.1464C28.5721 53.3193 28.1874 53.5738 27.8632 53.8953C27.5389 54.2168 27.2817 54.599 27.1061 55.0199C26.9306 55.4409 26.8402 55.8922 26.8402 56.3481C26.8402 56.8039 26.9306 57.2553 27.1061 57.6762C27.2817 58.0971 27.5389 58.4793 27.8632 58.8008C28.1874 59.1224 28.5721 59.3769 28.9953 59.5497C29.4185 59.7226 29.8719 59.8104 30.3292 59.8081H31.9844C32.2386 59.8057 32.4908 59.8536 32.7264 59.9489C32.962 60.0442 33.1763 60.1851 33.357 60.3635C33.5376 60.5419 33.681 60.7541 33.7789 60.988C33.8767 61.2219 33.9271 61.4729 33.9271 61.7263C33.9271 61.9797 33.8767 62.2306 33.7789 62.4645C33.681 62.6985 33.5376 62.9107 33.357 63.0891C33.1763 63.2674 32.962 63.4084 32.7264 63.5037C32.4908 63.599 32.2386 63.6469 31.9844 63.6445H27.4336V65.4369H32.164C32.6522 65.4373 33.1356 65.3414 33.5865 65.1548C34.0374 64.9682 34.4468 64.6946 34.7912 64.3497C35.1356 64.0049 35.4082 63.5955 35.5933 63.1453C35.7783 62.695 35.8723 62.2127 35.8696 61.7262C35.8696 59.79 34.2868 58.105 32.3082 58.105Z" fill="white"/>
<path d="M43.4224 52.6729C39.681 52.6729 36.9648 55.5769 36.9648 59.1803C36.9648 62.7661 39.681 65.6701 43.4224 65.6701C47.1638 65.6701 49.8796 62.7661 49.8796 59.1803C49.8796 55.5769 47.1638 52.6729 43.4224 52.6729ZM43.4224 63.8776C40.8144 63.8776 38.8897 61.8876 38.8897 59.1803C38.8897 56.4554 40.8144 54.4658 43.4224 54.4658C46.0305 54.4658 47.9552 56.4554 47.9552 59.1803C47.9552 61.8876 46.0305 63.8776 43.4224 63.8776Z" fill="white"/>
<path d="M53.4036 52.8881H51.7125V65.437H53.4395V55.7383L61.5696 65.6525V52.8881H59.8427V60.5787L53.4036 52.8881Z" fill="white"/>
<path d="M46.1831 69.4629C45.8982 69.4656 45.619 69.5428 45.3735 69.6869C45.1367 69.8167 44.9405 70.0092 44.8064 70.243H44.7887V67.535H43.9969V73.9011H44.7887V71.2829C44.7813 71.155 44.7995 71.027 44.8423 70.9063C44.9145 70.6808 45.0558 70.4835 45.2463 70.342C45.4367 70.2005 45.6668 70.122 45.9043 70.1174C46.6507 70.1174 46.9118 70.709 46.9118 71.4083V73.9011H47.7035V71.3187C47.7035 69.8215 46.7679 69.4629 46.1831 69.4629Z" fill="white"/>
<path d="M50.8339 69.4629C49.6282 69.4629 48.6749 70.3146 48.6749 71.7669C48.6749 73.1391 49.5835 74 50.762 74C51.8146 74 52.9302 73.3005 52.9302 71.6954C52.9302 70.3681 52.0846 69.4629 50.8339 69.4629ZM50.798 73.4079C50.0244 73.4079 49.4754 72.6907 49.4754 71.7402C49.4754 70.9153 49.8801 70.0545 50.8161 70.0545C51.7517 70.0545 52.1205 70.9868 52.1205 71.7221C52.1205 72.6998 51.5538 73.4079 50.798 73.4079Z" fill="white"/>
<path d="M54.8829 68.315L54.1093 68.5213V69.5611H53.4342V70.162H54.1093V72.5295C54.1093 73.0403 54.1903 73.426 54.4149 73.6591C54.525 73.7726 54.6583 73.861 54.8058 73.9182C54.9533 73.9755 55.1116 74.0002 55.2696 73.9907C55.5081 73.9982 55.746 73.9618 55.9713 73.8834L55.9353 73.2914C55.7854 73.3294 55.6312 73.3475 55.4765 73.3454C55.0357 73.3454 54.8829 73.0403 54.8829 72.5021V70.162H56.0164V69.5611H54.8829L54.8829 68.315Z" fill="white"/>
<path d="M58.5802 69.4629C57.3116 69.4629 56.538 70.4937 56.538 71.8029C56.538 73.1123 57.3385 73.9908 58.6791 73.9908C59.1755 74.0039 59.669 73.9123 60.1273 73.722L59.9927 73.1569C59.6117 73.3175 59.2004 73.394 58.787 73.3811C57.9952 73.3811 57.3116 72.9419 57.2935 71.8748H60.3525C60.3691 71.753 60.3781 71.6302 60.3794 71.5072C60.3794 70.709 60.0013 69.4629 58.5802 69.4629ZM57.3026 71.3097C57.3657 70.7629 57.7163 70.0277 58.5173 70.0277C59.4077 70.0277 59.6237 70.8077 59.6147 71.3097H57.3026Z" fill="white"/>
<path d="M62.1517 67.535H61.3599V73.9012H62.1517V67.535Z" fill="white"/>
<path d="M39.0506 0L37.0857 3.21376L44.2299 17.599H35.718L25.8592 37.0168L15.4659 16.9022L13.4835 20.013L17.7458 28.2617H11.1086L0 48.5044H63.1391L39.0506 0ZM13.0007 31.4422H19.3892L25.8842 44.012L37.6794 20.7795H45.8094L57.999 45.3237H5.38268L13.0007 31.4422Z" fill="white"/>
</svg>
