<svg width="24" height="24" viewBox="0 0 24 24" fill="none" xmlns="http://www.w3.org/2000/svg">
<path d="M11.9998 7.06302C9.27748 7.06302 7.06274 9.27776 7.06274 12C7.06274 14.7223 9.27745 16.9371 11.9998 16.9371C14.7221 16.9371 16.9368 14.7223 16.9368 12C16.9368 9.27772 14.7221 7.06302 11.9998 7.06302ZM11.9998 15.8741C9.86361 15.8741 8.12569 14.1362 8.12569 12C8.12569 9.86385 9.86361 8.12593 11.9998 8.12593C14.136 8.12593 15.8739 9.86388 15.8739 12C15.8739 14.1362 14.136 15.8741 11.9998 15.8741Z" fill="white" stroke="white" stroke-width="0.2"/>
<path d="M15.7964 7.25391C15.7964 6.67136 16.2687 6.19922 16.8511 6.19922C17.4337 6.19922 17.9058 6.67136 17.9058 7.25391C17.9058 7.83646 17.4337 8.30859 16.8511 8.30859C16.2687 8.30859 15.7964 7.83646 15.7964 7.25391Z" fill="white"/>
<path d="M16.0656 3H7.93443C5.21358 3 3 5.21358 3 7.93446V16.0656C3 18.7865 5.21358 21 7.93443 21H16.0656C18.7865 21 21 18.7865 21 16.0656V7.93446C21 5.21358 18.7865 3 16.0656 3ZM19.937 16.0656C19.937 18.2003 18.2003 19.937 16.0656 19.937H7.93443C5.7997 19.937 4.06298 18.2003 4.06298 16.0656V7.93446C4.06298 5.7997 5.7997 4.06298 7.93443 4.06298H16.0656C18.2003 4.06298 19.937 5.7997 19.937 7.93446V16.0656Z" fill="white" stroke="white" stroke-width="0.2"/>
</svg>
