<svg width="181" height="187" viewBox="0 0 181 187" fill="none" xmlns="http://www.w3.org/2000/svg">
<g clip-path="url(#clip0_115_18985)">
<path d="M21.4774 174.926L12.466 150.908H6.64709L21.4774 187.449L36.3078 150.908H30.4885L21.4774 174.926Z" fill="white"/>
<path d="M46.3454 150.908H41.0928V186.833H46.3454V150.908Z" fill="white"/>
<path d="M59.3174 150.908H54.0648V186.833H74.0441V181.701H59.3174V150.908Z" fill="white"/>
<path d="M92.9916 165.843H87.9448C84.9072 165.843 82.6922 163.687 82.6922 160.813C82.6922 157.938 84.9072 155.783 87.9448 155.783H98.553V150.907H87.3261C86.0168 150.901 84.7191 151.152 83.5076 151.647C82.296 152.142 81.1945 152.871 80.2663 153.791C79.3382 154.711 78.6017 155.806 78.0991 157.011C77.5965 158.216 77.3378 159.508 77.3378 160.813C77.3378 162.118 77.5965 163.41 78.0991 164.615C78.6017 165.82 79.3382 166.914 80.2663 167.835C81.1945 168.755 82.296 169.484 83.5076 169.978C84.7191 170.473 86.0168 170.725 87.3261 170.718H92.0645C92.7924 170.711 93.5145 170.848 94.1889 171.121C94.8634 171.394 95.4769 171.798 95.9941 172.308C96.5112 172.819 96.9217 173.426 97.2018 174.096C97.482 174.766 97.6262 175.484 97.6262 176.21C97.6262 176.935 97.482 177.653 97.2018 178.323C96.9217 178.993 96.5112 179.6 95.9941 180.111C95.4769 180.622 94.8634 181.025 94.1889 181.298C93.5145 181.571 92.7924 181.708 92.0645 181.701H79.0367V186.832H92.5788C93.9764 186.833 95.3604 186.559 96.6511 186.025C97.9419 185.49 99.114 184.707 100.1 183.72C101.086 182.733 101.866 181.561 102.396 180.272C102.926 178.983 103.195 177.602 103.187 176.209C103.187 170.666 98.6559 165.843 92.9916 165.843Z" fill="white"/>
<path d="M124.809 150.292C114.099 150.292 106.323 158.605 106.323 168.921C106.323 179.187 114.099 187.5 124.809 187.5C135.521 187.5 143.295 179.187 143.295 168.921C143.295 158.605 135.521 150.292 124.809 150.292ZM124.809 182.369C117.343 182.369 111.833 176.672 111.833 168.921C111.833 161.12 117.343 155.425 124.809 155.425C132.276 155.425 137.786 161.12 137.786 168.921C137.786 176.672 132.276 182.369 124.809 182.369Z" fill="white"/>
<path d="M153.383 150.908H148.542V186.833H153.486V159.067L176.761 187.45V150.908H171.817V172.924L153.383 150.908Z" fill="white"/>
<path d="M112.294 -0.5L106.669 8.70035L127.121 49.8823H102.753L74.5296 105.472L44.7758 47.8876L39.1005 56.7931L51.3026 80.4074H32.3017L0.5 138.358H181.254L112.294 -0.5ZM37.7183 89.5126H56.0073L74.6012 125.497L108.368 58.9874H131.643L166.539 129.253H15.9095L37.7183 89.5126Z" fill="white"/>
</g>
<defs>
<clipPath id="clip0_115_18985">
<rect width="181" height="187" fill="white"/>
</clipPath>
</defs>
</svg>
