<svg width="24" height="24" viewBox="0 0 24 24" fill="none" xmlns="http://www.w3.org/2000/svg">
<path d="M18.4444 7H6.22223C5.54814 7 5 7.54814 5 8.22223V16.7778C5 17.4519 5.54814 18 6.22223 18H18.4445C19.1185 18 19.6667 17.4519 19.6667 16.7778V8.22223C19.6667 7.54814 19.1185 7 18.4444 7ZM6.22223 7.6111H18.4445C18.4895 7.6111 18.5292 7.62752 18.5714 7.6368C17.5133 8.60523 14.0046 11.815 12.7768 12.9213C12.6807 13.0079 12.5258 13.1111 12.3334 13.1111C12.1409 13.1111 11.986 13.0079 11.8896 12.921C10.6619 11.8149 7.15305 8.60494 6.09507 7.63685C6.13741 7.62757 6.17717 7.6111 6.22223 7.6111ZM5.6111 16.7778V8.22223C5.6111 8.16236 5.62915 8.10805 5.6453 8.05334C6.45518 8.79458 8.90337 11.0342 10.4908 12.4778C8.90852 13.8369 6.45971 16.1586 5.64339 16.937C5.62898 16.8851 5.6111 16.8343 5.6111 16.7778ZM18.4444 17.3889H6.22223C6.17342 17.3889 6.13002 17.3719 6.08445 17.361C6.92798 16.5569 9.39238 14.2218 10.9468 12.892C11.1495 13.0758 11.3346 13.2434 11.4805 13.3749C11.7324 13.6023 12.0272 13.7222 12.3333 13.7222C12.6395 13.7222 12.9343 13.6023 13.1858 13.3752C13.3318 13.2436 13.5171 13.0759 13.7198 12.892C15.2744 14.2217 17.7384 16.5565 18.5822 17.361C18.5366 17.3719 18.4933 17.3889 18.4444 17.3889ZM19.0556 16.7778C19.0556 16.8342 19.0377 16.8851 19.0233 16.937C18.2067 16.1582 15.7581 13.8368 14.1759 12.4778C15.7634 11.0343 18.2112 8.7948 19.0214 8.05328C19.0375 8.10799 19.0556 8.16233 19.0556 8.2222V16.7778Z" fill="white"/>
</svg>
