<svg width="40" height="40" viewBox="0 0 40 40" fill="none" xmlns="http://www.w3.org/2000/svg">
<path d="M16.1821 10.5912C16.2165 10.5718 16.2076 10.5597 16.3284 10.6167C16.4492 10.6739 16.6412 10.8228 16.8297 11.0269C17.2058 11.4386 17.5834 12.0622 17.78 12.4739C17.7861 12.4875 17.7936 12.4993 17.8008 12.5112C18.3553 13.467 18.5941 14.197 18.6016 14.6566C18.6095 15.1152 18.4872 15.3132 18.0974 15.537L17.0896 16.1169C16.4339 16.4942 16.1246 17.1704 16.0477 17.8013C15.9702 18.4324 16.0855 19.0456 16.3663 19.5304L18.8497 23.8109C19.1322 24.2946 19.6092 24.7005 20.1969 24.9497C20.7847 25.1992 21.528 25.2698 22.1834 24.8928L23.1924 24.3157C23.5821 24.0919 23.8145 24.0856 24.2103 24.3215C24.6073 24.5574 25.1222 25.127 25.6767 26.0822C25.6845 26.096 25.692 26.1079 25.701 26.1215C25.9606 26.4956 26.3142 27.1328 26.4847 27.6633C26.5694 27.9275 26.6027 28.1663 26.592 28.3002C26.5801 28.4326 26.5773 28.4176 26.5423 28.4384L25.7776 28.8773C23.855 29.7128 22.0938 29.5249 20.5184 28.7061C18.9385 27.8871 17.5652 26.4039 16.6094 24.6644C16.6059 24.6612 16.6048 24.6566 16.6016 24.654L14.5085 21.045C14.5067 21.0404 14.5038 21.0375 14.5024 21.0326C13.4662 19.3396 12.8591 17.4147 12.9343 15.6451C13.01 13.8781 13.7305 12.266 15.4206 11.0263L16.1821 10.5912ZM16.7953 9.63138C16.4643 9.47671 16.0081 9.43132 15.6348 9.64641L14.8256 10.1122C14.8071 10.1226 14.7906 10.1333 14.7742 10.1437C12.8256 11.5696 11.9282 13.5543 11.8409 15.6006C11.7527 17.6457 12.4361 19.7565 13.5642 21.6016L15.6473 25.1894C15.6484 25.1894 15.6502 25.1894 15.6502 25.1908L15.653 25.2001C16.6953 27.0888 18.1894 28.7275 20.011 29.674C21.8356 30.6209 24.0094 30.8403 26.2251 29.8741C26.2448 29.8666 26.263 29.8576 26.2809 29.8484L27.0907 29.3829C27.4639 29.1678 27.6524 28.755 27.6831 28.3927C27.7146 28.029 27.6409 27.6792 27.529 27.3317C27.3098 26.6451 26.9305 25.9816 26.6148 25.5227C26.017 24.4981 25.4431 23.7846 24.777 23.388C24.1063 22.9884 23.3011 22.9942 22.6442 23.3715L21.6353 23.95C21.3378 24.1211 20.9914 24.1029 20.6274 23.9486C20.262 23.7936 19.9255 23.4828 19.7986 23.2663L17.3151 18.9857C17.1896 18.7695 17.0887 18.3231 17.1356 17.9325C17.1836 17.5402 17.3406 17.234 17.6381 17.0626L18.6441 16.4841C19.3013 16.1071 19.7107 15.4176 19.6982 14.639C19.6846 13.8656 19.351 13.0105 18.754 11.9795C18.5123 11.4811 18.1261 10.8231 17.6409 10.294C17.3949 10.0246 17.126 9.78605 16.7953 9.63138Z" fill="#6C4B76"/>
</svg>
