<svg width="25" height="25" viewBox="0 0 25 25" fill="none" xmlns="http://www.w3.org/2000/svg">
<path d="M19.7193 17.234L19.0859 17.8764C18.615 18.3487 18.0307 18.6901 17.3898 18.8672C16.7867 19.0352 16.1508 19.044 15.5436 18.8924C14.3601 18.5754 13.2345 18.0695 12.2097 17.3936C11.2675 16.7907 10.3928 16.087 9.60093 15.2943C8.87537 14.5633 8.22238 13.7635 7.6506 12.9053C7.0255 11.9745 6.5304 10.9614 6.17951 9.89499C5.74863 8.53511 6.10699 7.04628 7.10882 6.03657L7.84229 5.28084C8.20861 4.90883 8.80494 4.90592 9.17419 5.27498C9.17629 5.2771 9.17796 5.27877 9.18001 5.28084L11.522 7.64039C11.8913 8.00945 11.8942 8.61024 11.5279 8.98226C11.5258 8.98437 11.5241 8.98604 11.522 8.98811L10.1468 10.3736C9.90884 10.6226 9.87929 11.0059 10.076 11.2889C10.561 11.9586 11.0978 12.5888 11.6804 13.1741C12.3296 13.8307 13.0352 14.4278 13.7891 14.9584C13.832 14.9887 13.8782 15.0138 13.9266 15.034C14.1925 15.1457 14.4988 15.0844 14.7017 14.8787L15.7519 13.8207L16.0436 13.5268C16.4099 13.1548 17.0063 13.1519 17.3755 13.5209C17.3776 13.523 17.3793 13.5247 17.3813 13.5268L19.7233 15.8863C20.0917 16.2562 20.0922 16.857 19.725 17.2282C19.7235 17.2303 19.7214 17.2319 19.7193 17.234Z" fill="#6C4B76"/>
</svg>
