<svg width="24" height="24" viewBox="0 0 24 24" fill="none" xmlns="http://www.w3.org/2000/svg">
<path d="M8.67702 3.92264C8.70611 3.90626 8.69853 3.89599 8.80071 3.94415C8.90289 3.99255 9.0652 4.11844 9.22458 4.29102C9.5426 4.6391 9.86184 5.16637 10.0281 5.51446C10.0332 5.52595 10.0396 5.53597 10.0457 5.54599C10.5145 6.35413 10.7164 6.97135 10.7228 7.36002C10.7294 7.7477 10.626 7.91515 10.2965 8.10435L9.44433 8.5947C8.88993 8.9137 8.62838 9.48546 8.56335 10.0188C8.49784 10.5525 8.59538 11.0709 8.83273 11.4809L10.9325 15.1001C11.1713 15.5091 11.5747 15.8523 12.0716 16.063C12.5686 16.2739 13.197 16.3336 13.7512 16.0148L14.6043 15.5269C14.9338 15.3377 15.1304 15.3323 15.465 15.5318C15.8006 15.7313 16.236 16.2128 16.7048 17.0205C16.7114 17.0322 16.7178 17.0422 16.7254 17.0537C16.9449 17.37 17.2438 17.9088 17.388 18.3573C17.4597 18.5807 17.4878 18.7827 17.4787 18.8958C17.4687 19.0078 17.4663 18.9951 17.4367 19.0127L16.7901 19.3837C15.1646 20.0902 13.6754 19.9313 12.3434 19.239C11.0076 18.5465 9.84644 17.2925 9.03831 15.8217C9.03538 15.819 9.0344 15.8151 9.03171 15.8129L7.26193 12.7615C7.26046 12.7576 7.25802 12.7551 7.2568 12.751C6.38071 11.3195 5.86738 9.69202 5.93093 8.19577C5.99498 6.70173 6.60413 5.3387 8.03315 4.29053L8.67702 3.92264ZM9.19549 3.11108C8.9156 2.9803 8.52987 2.94193 8.21429 3.12379L7.53009 3.51759C7.51444 3.52639 7.50051 3.53544 7.48658 3.54424C5.83902 4.74984 5.08026 6.42795 5.00644 8.15813C4.93189 9.88733 5.50975 11.672 6.46358 13.2321L8.2248 16.2656C8.22578 16.2656 8.22724 16.2656 8.22724 16.2668L8.22969 16.2747C9.11091 17.8716 10.3742 19.2571 11.9144 20.0574C13.4571 20.858 15.2951 21.0435 17.1685 20.2266C17.1852 20.2202 17.2006 20.2127 17.2157 20.2048L17.9004 19.8113C18.216 19.6294 18.3754 19.2803 18.4013 18.9741C18.4279 18.6665 18.3656 18.3708 18.271 18.0769C18.0857 17.4964 17.765 16.9354 17.498 16.5475C16.9925 15.6811 16.5073 15.0779 15.9441 14.7425C15.377 14.4047 14.6962 14.4095 14.1408 14.7285L13.2877 15.2177C13.0362 15.3624 12.7434 15.347 12.4356 15.2165C12.1266 15.0854 11.8421 14.8227 11.7348 14.6396L9.635 11.0203C9.52891 10.8375 9.4436 10.4601 9.4832 10.1298C9.52378 9.7981 9.65651 9.53924 9.90804 9.39428L10.7587 8.90515C11.3143 8.58639 11.6605 8.00339 11.65 7.3451C11.6385 6.69122 11.3564 5.96815 10.8516 5.09646C10.6472 4.67504 10.3207 4.11868 9.91049 3.67135C9.70246 3.44353 9.47513 3.24186 9.19549 3.11108Z" fill="white"/>
</svg>
