<svg width="25" height="25" viewBox="0 0 25 25" fill="none" xmlns="http://www.w3.org/2000/svg">
<path d="M10.1063 5.77944C10.1309 5.7656 10.1245 5.75693 10.2108 5.79761C10.2971 5.8385 10.4343 5.94485 10.5689 6.09064C10.8376 6.38471 11.1073 6.83014 11.2477 7.1242C11.252 7.13391 11.2574 7.14237 11.2625 7.15084C11.6586 7.83355 11.8292 8.35497 11.8346 8.68332C11.8401 9.01083 11.7528 9.15229 11.4744 9.31212L10.7545 9.72637C10.2862 9.99586 10.0652 10.4789 10.0103 10.9295C9.95496 11.3803 10.0374 11.8183 10.2379 12.1646L12.0118 15.2221C12.2135 15.5676 12.5542 15.8575 12.9741 16.0355C13.3939 16.2137 13.9248 16.2641 14.393 15.9948L15.1137 15.5827C15.392 15.4228 15.5581 15.4183 15.8408 15.5868C16.1243 15.7553 16.4921 16.1621 16.8882 16.8444C16.8937 16.8543 16.8991 16.8628 16.9055 16.8725C17.091 17.1397 17.3435 17.5948 17.4653 17.9738C17.5259 18.1625 17.5496 18.3331 17.542 18.4287C17.5335 18.5233 17.5314 18.5126 17.5064 18.5274L16.9602 18.8409C15.587 19.4377 14.3289 19.3035 13.2037 18.7186C12.0751 18.1336 11.0942 17.0742 10.4115 15.8317C10.4091 15.8294 10.4082 15.8261 10.406 15.8243L8.91087 13.2465C8.90963 13.2432 8.90756 13.2411 8.90653 13.2376C8.16642 12.0283 7.73275 10.6534 7.78645 9.38936C7.84055 8.1272 8.35516 6.97572 9.56239 6.09023L10.1063 5.77944ZM10.5443 5.09384C10.3079 4.98336 9.98201 4.95094 9.71541 5.10458L9.1374 5.43726C9.12419 5.44469 9.11242 5.45234 9.10065 5.45977C7.7088 6.47825 7.06781 7.89591 7.00544 9.35756C6.94246 10.8184 7.43064 12.3261 8.23642 13.644L9.72429 16.2067C9.72512 16.2067 9.72636 16.2067 9.72636 16.2077L9.72842 16.2144C10.4729 17.5635 11.5401 18.7339 12.8413 19.41C14.1445 20.0863 15.6972 20.2431 17.2799 19.5529C17.2939 19.5476 17.307 19.5412 17.3198 19.5345L17.8982 19.2021C18.1648 19.0484 18.2994 18.7535 18.3213 18.4948C18.3438 18.235 18.2912 17.9851 18.2112 17.7369C18.0547 17.2465 17.7838 16.7725 17.5583 16.4448C17.1312 15.713 16.7213 15.2033 16.2455 14.92C15.7664 14.6346 15.1913 14.6387 14.7221 14.9082L14.0014 15.3214C13.7889 15.4437 13.5415 15.4307 13.2816 15.3204C13.0205 15.2097 12.7802 14.9877 12.6895 14.833L10.9156 11.7755C10.826 11.6211 10.7539 11.3022 10.7874 11.0232C10.8217 10.743 10.9338 10.5243 11.1463 10.4019L11.8649 9.98864C12.3343 9.71935 12.6267 9.22684 12.6178 8.67072C12.6081 8.11832 12.3698 7.50748 11.9434 6.77108C11.7708 6.41506 11.4949 5.94506 11.1484 5.56715C10.9726 5.37469 10.7806 5.20432 10.5443 5.09384Z" fill="#6C4B76"/>
</svg>
