<svg width="187" height="198" viewBox="0 0 187 198" fill="none" xmlns="http://www.w3.org/2000/svg">
<g clip-path="url(#clip0_287_729)">
<path d="M21.4773 176.926L12.4659 152.908H6.64697L21.4773 189.449L36.3077 152.908H30.4884L21.4773 176.926Z" fill="black"/>
<path d="M46.3454 152.908H41.0928V188.833H46.3454V152.908Z" fill="black"/>
<path d="M59.3173 152.908H54.0647V188.833H74.0439V183.701H59.3173V152.908Z" fill="black"/>
<path d="M92.9915 167.843H87.9447C84.9071 167.843 82.6921 165.687 82.6921 162.813C82.6921 159.938 84.9071 157.783 87.9447 157.783H98.5529V152.907H87.326C86.0167 152.901 84.719 153.152 83.5074 153.647C82.2959 154.142 81.1944 154.871 80.2662 155.791C79.3381 156.711 78.6015 157.806 78.099 159.011C77.5964 160.216 77.3376 161.508 77.3376 162.813C77.3376 164.118 77.5964 165.41 78.099 166.615C78.6015 167.82 79.3381 168.914 80.2662 169.835C81.1944 170.755 82.2959 171.484 83.5074 171.978C84.719 172.473 86.0167 172.725 87.326 172.718H92.0644C92.7923 172.711 93.5144 172.848 94.1888 173.121C94.8633 173.394 95.4768 173.798 95.9939 174.308C96.5111 174.819 96.9215 175.426 97.2017 176.096C97.4818 176.766 97.6261 177.484 97.6261 178.21C97.6261 178.935 97.4818 179.653 97.2017 180.323C96.9215 180.993 96.5111 181.6 95.9939 182.111C95.4768 182.622 94.8633 183.025 94.1888 183.298C93.5144 183.571 92.7923 183.708 92.0644 183.701H79.0366V188.832H92.5786C93.9762 188.833 95.3603 188.559 96.651 188.025C97.9418 187.491 99.1139 186.707 100.1 185.72C101.086 184.733 101.866 183.561 102.396 182.272C102.926 180.983 103.195 179.602 103.187 178.209C103.187 172.666 98.6558 167.843 92.9915 167.843Z" fill="black"/>
<path d="M124.809 152.292C114.099 152.292 106.323 160.605 106.323 170.921C106.323 181.187 114.099 189.5 124.809 189.5C135.521 189.5 143.295 181.187 143.295 170.921C143.295 160.605 135.521 152.292 124.809 152.292ZM124.809 184.369C117.343 184.369 111.833 178.672 111.833 170.921C111.833 163.12 117.343 157.425 124.809 157.425C132.276 157.425 137.786 163.12 137.786 170.921C137.786 178.672 132.276 184.369 124.809 184.369Z" fill="black"/>
<path d="M153.383 152.908H148.542V188.833H153.486V161.067L176.761 189.45V152.908H171.817V174.924L153.383 152.908Z" fill="black"/>
</g>
<path d="M109 55.5L77.5 116.5L61.7025 85.75H38L11 135H177L137.5 55.5H109Z" stroke="black" stroke-width="9"/>
<path d="M47.5 49.5L42 58L54.5 81.5H64L47.5 49.5Z" fill="black" stroke="black"/>
<path d="M115 1L109 10L131 51.5H140L115 1Z" fill="black" stroke="black"/>
<defs>
<clipPath id="clip0_287_729">
<rect width="181" height="54" fill="white" transform="translate(0 144)"/>
</clipPath>
</defs>
</svg>
