<svg width="182" height="189" viewBox="0 0 182 189" fill="none" xmlns="http://www.w3.org/2000/svg">
<path d="M105.5 55.5H134.5L174 135H8L35 86H58.7263L74.5 117L105.5 55.5Z" stroke="black" stroke-width="9"/>
<path d="M45 48.5L39 58L56 90.5H66L45 48.5Z" fill="black"/>
<path d="M112.5 0.5L106 10L131.5 60L141.5 59.5L112.5 0.5Z" fill="black"/>
<path d="M18.8303 175.634L9.81889 151.616H4L18.8303 188.157L33.6607 151.616H27.8414L18.8303 175.634Z" fill="black"/>
<path d="M43.6984 151.616H38.4458V187.541H43.6984V151.616Z" fill="black"/>
<path d="M56.6703 151.616H51.4177V187.541H71.397V182.409H56.6703V151.616Z" fill="black"/>
<path d="M90.3445 166.551H85.2977C82.2601 166.551 80.0451 164.395 80.0451 161.521C80.0451 158.646 82.2601 156.491 85.2977 156.491H95.9059V151.616H84.6791C83.3697 151.609 82.072 151.86 80.8605 152.355C79.6489 152.85 78.5474 153.579 77.6193 154.499C76.6911 155.42 75.9546 156.514 75.452 157.719C74.9494 158.924 74.6907 160.216 74.6907 161.521C74.6907 162.826 74.9494 164.118 75.452 165.323C75.9546 166.528 76.6911 167.622 77.6193 168.543C78.5474 169.463 79.6489 170.192 80.8605 170.687C82.072 171.181 83.3697 171.433 84.6791 171.426H89.4174C90.1453 171.419 90.8674 171.556 91.5418 171.829C92.2163 172.102 92.8298 172.506 93.347 173.016C93.8641 173.527 94.2746 174.135 94.5547 174.804C94.8349 175.474 94.9791 176.192 94.9791 176.918C94.9791 177.643 94.8349 178.362 94.5547 179.031C94.2746 179.701 93.8641 180.308 93.347 180.819C92.8298 181.33 92.2163 181.733 91.5418 182.006C90.8674 182.279 90.1453 182.416 89.4174 182.409H76.3896V187.541H89.9317C91.3293 187.541 92.7133 187.267 94.0041 186.733C95.2948 186.199 96.4669 185.415 97.4528 184.428C98.4388 183.441 99.2191 182.269 99.7489 180.98C100.279 179.691 100.548 178.31 100.54 176.917C100.54 171.374 96.0088 166.551 90.3445 166.551Z" fill="black"/>
<path d="M122.162 151C111.452 151 103.676 159.313 103.676 169.629C103.676 179.895 111.452 188.208 122.162 188.208C132.874 188.208 140.648 179.895 140.648 169.629C140.648 159.313 132.874 151 122.162 151ZM122.162 183.077C114.696 183.077 109.186 177.38 109.186 169.629C109.186 161.828 114.696 156.133 122.162 156.133C129.629 156.133 135.139 161.828 135.139 169.629C135.139 177.38 129.629 183.077 122.162 183.077Z" fill="black"/>
<path d="M150.736 151.616H145.895V187.541H150.839V159.775L174.114 188.158V151.616H169.17V173.632L150.736 151.616Z" fill="black"/>
</svg>
