<svg width="19" height="20" viewBox="0 0 19 20" fill="none" xmlns="http://www.w3.org/2000/svg">
<path d="M4.75039 1.09375C2.45911 1.09375 0.594137 3.22472 0.594137 5.84375C0.573721 6.70506 0.782953 7.55629 1.20034 8.30999C1.61773 9.06369 2.22823 9.6927 2.96914 10.1324V17.125C2.96914 17.5974 3.1568 18.0505 3.49085 18.3845C3.8249 18.7186 4.27797 18.9062 4.75039 18.9062C5.2228 18.9062 5.67587 18.7186 6.00992 18.3845C6.34397 18.0505 6.53164 17.5974 6.53164 17.125V10.1324C7.27254 9.6927 7.88304 9.06369 8.30043 8.30999C8.71782 7.55629 8.92705 6.70506 8.90664 5.84375C8.90664 3.22472 7.04167 1.09375 4.75039 1.09375ZM5.71107 9.20972C5.60249 9.2546 5.50967 9.33069 5.44435 9.42835C5.37903 9.52601 5.34416 9.64085 5.34414 9.75834V17.125C5.34414 17.2825 5.28158 17.4335 5.17023 17.5448C5.05888 17.6562 4.90786 17.7188 4.75039 17.7188C4.59291 17.7188 4.44189 17.6562 4.33054 17.5448C4.21919 17.4335 4.15664 17.2825 4.15664 17.125V9.75834C4.15662 9.64085 4.12174 9.52601 4.05642 9.42835C3.9911 9.33069 3.89828 9.2546 3.7897 9.20972C3.16381 8.90486 2.64045 8.42403 2.28377 7.82615C1.92709 7.22828 1.75258 6.53933 1.78164 5.84375C1.78164 3.87903 3.11342 2.28125 4.75039 2.28125C6.38736 2.28125 7.71914 3.87903 7.71914 5.84375C7.74819 6.53933 7.57368 7.22828 7.217 7.82615C6.86032 8.42403 6.33696 8.90486 5.71107 9.20972Z" fill="#6C4B76"/>
<path d="M17.8125 1.09375C17.655 1.09375 17.504 1.15631 17.3927 1.26766C17.2813 1.37901 17.2188 1.53003 17.2188 1.6875V7.625C17.2188 8.09742 17.0311 8.55049 16.697 8.88453C16.363 9.21858 15.9099 9.40625 15.4375 9.40625C15.28 9.40625 15.129 9.46881 15.0177 9.58016C14.9063 9.69151 14.8438 9.84253 14.8438 10V17.125C14.8438 17.2825 14.7812 17.4335 14.6698 17.5448C14.5585 17.6562 14.4075 17.7188 14.25 17.7188C14.0925 17.7188 13.9415 17.6562 13.8302 17.5448C13.7188 17.4335 13.6562 17.2825 13.6562 17.125V10C13.6562 9.84253 13.5937 9.69151 13.4823 9.58016C13.371 9.46881 13.22 9.40625 13.0625 9.40625C12.5901 9.40625 12.137 9.21858 11.803 8.88453C11.4689 8.55049 11.2812 8.09742 11.2812 7.625V1.6875C11.2812 1.53003 11.2187 1.37901 11.1073 1.26766C10.996 1.15631 10.845 1.09375 10.6875 1.09375C10.53 1.09375 10.379 1.15631 10.2677 1.26766C10.1563 1.37901 10.0938 1.53003 10.0938 1.6875V7.625C10.0945 8.30915 10.3312 8.97212 10.7638 9.5021C11.1964 10.0321 11.7986 10.3967 12.4688 10.5344V17.125C12.4688 17.5974 12.6564 18.0505 12.9905 18.3845C13.3245 18.7186 13.7776 18.9062 14.25 18.9062C14.7224 18.9062 15.1755 18.7186 15.5095 18.3845C15.8436 18.0505 16.0312 17.5974 16.0312 17.125V10.5344C16.7014 10.3967 17.3036 10.0321 17.7362 9.5021C18.1688 8.97212 18.4055 8.30915 18.4062 7.625V1.6875C18.4062 1.53003 18.3437 1.37901 18.2323 1.26766C18.121 1.15631 17.97 1.09375 17.8125 1.09375Z" fill="#6C4B76"/>
<path d="M13.0625 8.21875C13.22 8.21875 13.371 8.15619 13.4823 8.04484C13.5937 7.9335 13.6562 7.78247 13.6562 7.625V1.6875C13.6562 1.53003 13.5937 1.37901 13.4823 1.26766C13.371 1.15631 13.22 1.09375 13.0625 1.09375C12.905 1.09375 12.754 1.15631 12.6427 1.26766C12.5313 1.37901 12.4688 1.53003 12.4688 1.6875V7.625C12.4688 7.78247 12.5313 7.9335 12.6427 8.04484C12.754 8.15619 12.905 8.21875 13.0625 8.21875Z" fill="#6C4B76"/>
<path d="M15.4375 8.21875C15.595 8.21875 15.746 8.15619 15.8573 8.04484C15.9687 7.9335 16.0312 7.78247 16.0312 7.625V1.6875C16.0312 1.53003 15.9687 1.37901 15.8573 1.26766C15.746 1.15631 15.595 1.09375 15.4375 1.09375C15.28 1.09375 15.129 1.15631 15.0177 1.26766C14.9063 1.37901 14.8438 1.53003 14.8438 1.6875V7.625C14.8438 7.78247 14.9063 7.9335 15.0177 8.04484C15.129 8.15619 15.28 8.21875 15.4375 8.21875Z" fill="#6C4B76"/>
</svg>
