<svg width="31" height="34" viewBox="0 0 31 34" fill="none" xmlns="http://www.w3.org/2000/svg">
<g clip-path="url(#clip0_454_2381)">
<path d="M10.7504 7.88788C8.45911 7.88788 6.59414 10.0188 6.59414 12.6379C6.57372 13.4992 6.78295 14.3504 7.20034 15.1041C7.61773 15.8578 8.22823 16.4868 8.96914 16.9265V23.9191C8.96914 24.3915 9.1568 24.8446 9.49085 25.1787C9.8249 25.5127 10.278 25.7004 10.7504 25.7004C11.2228 25.7004 11.6759 25.5127 12.0099 25.1787C12.344 24.8446 12.5316 24.3915 12.5316 23.9191V16.9265C13.2725 16.4868 13.883 15.8578 14.3004 15.1041C14.7178 14.3504 14.9271 13.4992 14.9066 12.6379C14.9066 10.0188 13.0417 7.88788 10.7504 7.88788ZM11.7111 16.0038C11.6025 16.0487 11.5097 16.1248 11.4444 16.2225C11.379 16.3201 11.3442 16.435 11.3441 16.5525V23.9191C11.3441 24.0766 11.2816 24.2276 11.1702 24.339C11.0589 24.4503 10.9079 24.5129 10.7504 24.5129C10.5929 24.5129 10.4419 24.4503 10.3305 24.339C10.2192 24.2276 10.1566 24.0766 10.1566 23.9191V16.5525C10.1566 16.435 10.1217 16.3201 10.0564 16.2225C9.9911 16.1248 9.89828 16.0487 9.7897 16.0038C9.16381 15.699 8.64045 15.2182 8.28377 14.6203C7.92709 14.0224 7.75258 13.3335 7.78164 12.6379C7.78164 10.6732 9.11342 9.07538 10.7504 9.07538C12.3874 9.07538 13.7191 10.6732 13.7191 12.6379C13.7482 13.3335 13.5737 14.0224 13.217 14.6203C12.8603 15.2182 12.337 15.699 11.7111 16.0038Z" fill="#6C4B76"/>
<path d="M23.8125 7.88788C23.655 7.88788 23.504 7.95043 23.3927 8.06178C23.2813 8.17313 23.2188 8.32416 23.2188 8.48163V14.4191C23.2188 14.8915 23.0311 15.3446 22.697 15.6787C22.363 16.0127 21.9099 16.2004 21.4375 16.2004C21.28 16.2004 21.129 16.2629 21.0177 16.3743C20.9063 16.4856 20.8438 16.6367 20.8438 16.7941V23.9191C20.8438 24.0766 20.7812 24.2276 20.6698 24.339C20.5585 24.4503 20.4075 24.5129 20.25 24.5129C20.0925 24.5129 19.9415 24.4503 19.8302 24.339C19.7188 24.2276 19.6562 24.0766 19.6562 23.9191V16.7941C19.6562 16.6367 19.5937 16.4856 19.4823 16.3743C19.371 16.2629 19.22 16.2004 19.0625 16.2004C18.5901 16.2004 18.137 16.0127 17.803 15.6787C17.4689 15.3446 17.2812 14.8915 17.2812 14.4191V8.48163C17.2812 8.32416 17.2187 8.17313 17.1073 8.06178C16.996 7.95043 16.845 7.88788 16.6875 7.88788C16.53 7.88788 16.379 7.95043 16.2677 8.06178C16.1563 8.17313 16.0938 8.32416 16.0938 8.48163V14.4191C16.0945 15.1033 16.3312 15.7662 16.7638 16.2962C17.1964 16.8262 17.7986 17.1908 18.4688 17.3285V23.9191C18.4688 24.3915 18.6564 24.8446 18.9905 25.1787C19.3245 25.5127 19.7776 25.7004 20.25 25.7004C20.7224 25.7004 21.1755 25.5127 21.5095 25.1787C21.8436 24.8446 22.0312 24.3915 22.0312 23.9191V17.3285C22.7014 17.1908 23.3036 16.8262 23.7362 16.2962C24.1688 15.7662 24.4055 15.1033 24.4062 14.4191V8.48163C24.4062 8.32416 24.3437 8.17313 24.2323 8.06178C24.121 7.95043 23.97 7.88788 23.8125 7.88788Z" fill="#6C4B76"/>
<path d="M19.0625 15.0129C19.22 15.0129 19.371 14.9503 19.4823 14.839C19.5937 14.7276 19.6562 14.5766 19.6562 14.4191V8.48163C19.6562 8.32416 19.5937 8.17313 19.4823 8.06178C19.371 7.95043 19.22 7.88788 19.0625 7.88788C18.905 7.88788 18.754 7.95043 18.6427 8.06178C18.5313 8.17313 18.4688 8.32416 18.4688 8.48163V14.4191C18.4688 14.5766 18.5313 14.7276 18.6427 14.839C18.754 14.9503 18.905 15.0129 19.0625 15.0129Z" fill="#6C4B76"/>
<path d="M21.4375 15.0129C21.595 15.0129 21.746 14.9503 21.8573 14.839C21.9687 14.7276 22.0312 14.5766 22.0312 14.4191V8.48163C22.0312 8.32416 21.9687 8.17313 21.8573 8.06178C21.746 7.95043 21.595 7.88788 21.4375 7.88788C21.28 7.88788 21.129 7.95043 21.0177 8.06178C20.9063 8.17313 20.8438 8.32416 20.8438 8.48163V14.4191C20.8438 14.5766 20.9063 14.7276 21.0177 14.839C21.129 14.9503 21.28 15.0129 21.4375 15.0129Z" fill="#6C4B76"/>
</g>
<defs>
<clipPath id="clip0_454_2381">
<rect width="19" height="19" fill="white" transform="translate(6 7.29413)"/>
</clipPath>
</defs>
</svg>
