<svg width="31" height="33" viewBox="0 0 31 33" fill="none" xmlns="http://www.w3.org/2000/svg">
<g clip-path="url(#clip0_651_1375)">
<path d="M24.4376 10.8052C24.4367 10.0595 24.1401 9.34463 23.6129 8.81736C23.0856 8.2901 22.3707 7.99351 21.6251 7.99268H18.4291C17.7877 7.24838 16.4004 6.74268 14.7501 6.74268C12.5589 6.74268 10.8291 7.63264 10.7001 8.79197C10.3798 9.11822 10.0988 9.59525 9.85404 10.1802H7.87505C7.82399 10.1802 7.7737 10.1927 7.72858 10.2166C7.68347 10.2405 7.64491 10.2751 7.61627 10.3174C7.58763 10.3597 7.56979 10.4084 7.56431 10.4591C7.55882 10.5099 7.56587 10.5612 7.58482 10.6087L8.83482 13.7337C8.84701 13.7639 8.86388 13.7921 8.88482 13.8172C8.31501 17.0492 8.19536 20.5521 8.18755 20.7954C8.18755 20.7971 8.18841 20.7986 8.18837 20.8003C8.18833 20.802 8.18755 20.8035 8.18755 20.8052C8.18785 21.1692 8.27902 21.5273 8.45278 21.8471C8.62655 22.167 8.87742 22.4383 9.18263 22.6367C8.69905 22.8632 8.28991 23.2226 8.00303 23.673C7.71615 24.1234 7.56338 24.6462 7.56255 25.1802C7.56255 25.2631 7.59548 25.3425 7.65408 25.4011C7.71269 25.4598 7.79217 25.4927 7.87505 25.4927H21.6251C21.7079 25.4927 21.7874 25.4598 21.846 25.4011C21.9046 25.3425 21.9376 25.2631 21.9376 25.1802C21.9367 24.6462 21.784 24.1234 21.4971 23.673C21.2102 23.2226 20.8011 22.8632 20.3175 22.6367C20.6227 22.4383 20.8736 22.167 21.0473 21.8471C21.2211 21.5273 21.3123 21.1692 21.3126 20.8052C21.3126 20.8035 21.3116 20.802 21.3116 20.8003C21.3116 20.7986 21.3125 20.7971 21.3124 20.7954C21.3102 20.726 21.2985 20.3863 21.2702 19.8677H21.6251C22.3707 19.8668 23.0856 19.5703 23.6129 19.043C24.1401 18.5157 24.4367 17.8008 24.4376 17.0552V10.8052ZM14.7501 7.36768C16.4926 7.36768 17.7808 7.97682 18.107 8.61768H11.3931C11.7193 7.97682 13.0075 7.36768 14.7501 7.36768ZM8.33661 10.8052H9.61958C9.41059 11.4318 9.23746 12.0698 9.10103 12.7162L8.33661 10.8052ZM21.2903 24.8677H8.20982C8.28565 24.3473 8.5461 23.8716 8.94362 23.5274C9.34114 23.1831 9.8492 22.9933 10.3751 22.9927H19.1251C19.6509 22.9933 20.159 23.1831 20.5565 23.5274C20.954 23.8716 21.2145 24.3473 21.2903 24.8677ZM19.1251 22.3677H10.3751C10.015 22.3672 9.66615 22.2426 9.38726 22.0149C9.10837 21.7872 8.9165 21.4703 8.844 21.1177H20.6563C20.5838 21.4704 20.3919 21.7873 20.113 22.015C19.834 22.2427 19.4851 22.3672 19.1251 22.3677ZM8.82537 20.4927C8.85939 19.7371 8.96744 17.7553 9.24025 15.6453C9.55665 13.1973 9.94966 11.6346 10.3367 10.6349C10.3448 10.6187 10.3514 10.6019 10.3565 10.5846C10.626 9.90139 10.892 9.48623 11.1265 9.24268H18.3736C18.9503 9.84174 19.7173 11.4497 20.2599 15.6453C20.5327 17.7553 20.6407 19.7371 20.6747 20.4927H8.82537ZM20.058 11.3614C20.0586 11.3536 20.0626 11.3469 20.0626 11.3389V10.8052C20.0628 10.5566 20.1617 10.3183 20.3374 10.1426C20.5132 9.96682 20.7515 9.86795 21.0001 9.86768H21.6251C21.8736 9.86795 22.1119 9.96682 22.2877 10.1426C22.4634 10.3183 22.5623 10.5566 22.5626 10.8052V17.0552C22.5623 17.3037 22.4634 17.542 22.2877 17.7178C22.1119 17.8935 21.8736 17.9924 21.6251 17.9927H21.1389C20.9713 16.0185 20.6521 13.3841 20.058 11.3614ZM23.8126 17.0552C23.8119 17.6351 23.5812 18.1911 23.1711 18.6012C22.761 19.0113 22.205 19.242 21.6251 19.2427H21.2327C21.22 19.0469 21.2058 18.8399 21.1892 18.6177H21.6251C22.0393 18.6172 22.4365 18.4524 22.7294 18.1595C23.0223 17.8666 23.1871 17.4694 23.1876 17.0552V10.8052C23.1871 10.3909 23.0223 9.99378 22.7294 9.70086C22.4365 9.40794 22.0393 9.24316 21.6251 9.24268H21.0001C20.7119 9.24366 20.4297 9.3245 20.1848 9.4762C19.9398 9.62791 19.7417 9.84454 19.6124 10.1021C19.3756 9.55264 19.1057 9.10342 18.7999 8.79189C18.7935 8.73316 18.7829 8.67494 18.7683 8.61768H21.6251C22.205 8.61835 22.761 8.84903 23.1711 9.25912C23.5812 9.66921 23.8119 10.2252 23.8126 10.8052V17.0552Z" fill="#6C4B76"/>
<path d="M15.6875 23.6177H13.8125C13.7296 23.6177 13.6501 23.6506 13.5915 23.7092C13.5329 23.7678 13.5 23.8473 13.5 23.9302C13.5 24.0131 13.5329 24.0925 13.5915 24.1511C13.6501 24.2098 13.7296 24.2427 13.8125 24.2427H15.6875C15.7704 24.2427 15.8499 24.2098 15.9085 24.1511C15.9671 24.0925 16 24.0131 16 23.9302C16 23.8473 15.9671 23.7678 15.9085 23.7092C15.8499 23.6506 15.7704 23.6177 15.6875 23.6177Z" fill="#6C4B76"/>
</g>
<defs>
<clipPath id="clip0_651_1375">
<rect width="20" height="20" fill="white" transform="translate(6 6.11768)"/>
</clipPath>
</defs>
</svg>
