<svg width="31" height="34" viewBox="0 0 31 34" fill="none" xmlns="http://www.w3.org/2000/svg">
<g clip-path="url(#clip0_454_2340)">
<path d="M18.7052 18.0693C17.8502 16.7355 16.3941 15.9391 14.81 15.9391C13.226 15.9391 11.7698 16.7355 10.915 18.0693L8.85481 21.2832C8.513 21.8165 8.35529 22.4324 8.39863 23.0643C8.44197 23.6963 8.68246 24.2848 9.094 24.7665C9.50582 25.2481 10.05 25.5771 10.6677 25.7183C11.2853 25.8594 11.9185 25.7992 12.4986 25.5442L12.5365 25.5274C13.9963 24.8982 15.665 24.9038 17.1212 25.5442C17.4968 25.7093 17.8947 25.7928 18.2963 25.7928C18.5146 25.7928 18.7342 25.7681 18.9518 25.7185C19.5694 25.5774 20.1136 25.2484 20.5256 24.7668C20.9373 24.2853 21.1779 23.6966 21.2214 23.0646C21.2649 22.4324 21.1071 21.8165 20.7653 21.283L18.7052 18.0693ZM19.6792 24.0429C19.1551 24.6555 18.3074 24.8492 17.5696 24.5247C16.6926 24.139 15.7512 23.9462 14.8096 23.9462C13.8688 23.9462 12.9276 24.1389 12.0511 24.5242L12.0262 24.5352C11.294 24.8448 10.4588 24.6487 9.94055 24.0429C9.41711 23.4302 9.35753 22.5627 9.79241 21.8842L11.8527 18.6703C12.5018 17.6576 13.6073 17.053 14.81 17.053C16.0127 17.053 17.1183 17.6576 17.7676 18.6703L19.8276 21.884C20.2626 22.5629 20.2029 23.4305 19.6792 24.0429Z" fill="#6C4B76"/>
<path d="M9.41016 18.0651C10.023 17.8297 10.4887 17.3358 10.7213 16.6744C10.9425 16.045 10.9244 15.3344 10.67 14.6734C10.4155 14.0128 9.95245 13.4736 9.36639 13.1548C8.75046 12.8201 8.07394 12.7656 7.46207 13.0014C6.23108 13.4747 5.66618 14.9959 6.20296 16.3932C6.63174 17.5053 7.63181 18.2073 8.6429 18.2073C8.90107 18.2073 9.15997 18.1615 9.41016 18.0651ZM7.24231 15.9931C6.92601 15.1697 7.2039 14.2939 7.86215 14.0408C7.98102 13.995 8.1067 13.9722 8.23499 13.9722C8.433 13.9722 8.63754 14.0263 8.83439 14.1334C9.18838 14.3258 9.47119 14.6597 9.63065 15.0736C9.78996 15.4878 9.80416 15.9249 9.67051 16.3049C9.54802 16.6531 9.31362 16.9091 9.01066 17.0255L9.01008 17.0258C8.35269 17.2791 7.55962 16.8157 7.24231 15.9931Z" fill="#6C4B76"/>
<path d="M13.4078 15.5472C14.9467 15.5472 16.1987 14.1208 16.1987 12.3675C16.1987 10.6138 14.9467 9.18713 13.4078 9.18713C11.869 9.18713 10.6172 10.6138 10.6172 12.3675C10.6172 14.1208 11.869 15.5472 13.4078 15.5472ZM13.4078 10.3008C14.3325 10.3008 15.085 11.228 15.085 12.3675C15.085 13.5066 14.3325 14.4335 13.4078 14.4335C12.4831 14.4335 11.7309 13.5066 11.7309 12.3675C11.7309 11.228 12.4831 10.3008 13.4078 10.3008Z" fill="#6C4B76"/>
<path d="M18.227 16.3287H18.2272C18.4639 16.4073 18.7054 16.4448 18.9459 16.4448C20.0681 16.4448 21.1618 15.628 21.5792 14.3726C21.8195 13.65 21.8037 12.8859 21.5347 12.2213C21.2532 11.5257 20.7315 11.0206 20.0655 10.7991C19.3996 10.5779 18.679 10.6701 18.037 11.0589C17.4237 11.4304 16.9537 12.0329 16.7138 12.7555C16.2072 14.2799 16.886 15.8828 18.227 16.3287ZM17.7707 13.1067C17.9274 12.6349 18.2269 12.2461 18.6141 12.0116C18.9722 11.7946 19.3631 11.7393 19.7143 11.856C20.0654 11.9729 20.3451 12.2509 20.5023 12.6391C20.672 13.0586 20.6793 13.5494 20.5223 14.0213C20.2093 14.9629 19.3372 15.5239 18.5784 15.2718C17.8201 15.0196 17.4577 14.0484 17.7707 13.1067Z" fill="#6C4B76"/>
<path d="M24.1048 15.9573L24.1044 15.9569C23.0431 15.1729 21.456 15.5127 20.5661 16.7147C19.677 17.9173 19.8161 19.534 20.8757 20.3185C21.2622 20.6048 21.7188 20.7416 22.1861 20.7416C23.0006 20.7416 23.8481 20.3259 24.4144 19.5614C25.3035 18.3588 25.1646 16.7421 24.1048 15.9573ZM23.5193 18.8988C22.9938 19.6081 22.1054 19.8433 21.5385 19.4234C20.972 19.004 20.9375 18.0859 21.4615 17.377C21.8098 16.9065 22.3186 16.6447 22.7876 16.6447C23.0247 16.6447 23.2517 16.7117 23.4425 16.8527C24.0085 17.2725 24.0429 18.1904 23.5193 18.8988Z" fill="#6C4B76"/>
</g>
<defs>
<clipPath id="clip0_454_2340">
<rect width="19" height="19" fill="white" transform="translate(6 7.99963)"/>
</clipPath>
</defs>
</svg>
