<svg width="31" height="34" viewBox="0 0 31 34" fill="none" xmlns="http://www.w3.org/2000/svg">
<g clip-path="url(#clip0_454_2463)">
<path d="M10.6522 16.5288C9.45312 16.5288 8.27677 16.0461 7.41594 15.1982C6.55576 14.3509 6.08203 13.2266 6.08203 12.0325C6.08203 10.7183 6.66655 9.47418 7.68573 8.61912C8.7354 7.73849 10.1072 7.36932 11.4497 7.60615L20.5221 9.20723C20.7792 9.2526 20.9666 9.47597 20.9666 9.73705V14.328C20.9666 14.589 20.7792 14.8124 20.5221 14.8577C18.3239 15.2457 16.6445 15.5431 15.3573 15.771C11.0849 16.5276 11.0849 16.5276 10.7764 16.528C10.7593 16.528 10.7409 16.528 10.7196 16.5283C10.6972 16.5287 10.6747 16.5288 10.6522 16.5288ZM10.6505 8.61209C9.82703 8.61209 9.02308 8.90164 8.37734 9.44341C7.60245 10.0935 7.15803 11.0372 7.15803 12.0325C7.15803 12.9362 7.51777 13.7882 8.171 14.4316C8.844 15.0945 9.76713 15.4665 10.7043 15.4524C10.7313 15.452 10.754 15.452 10.7751 15.452C10.9857 15.4517 11.0679 15.4379 15.1697 14.7115C16.3689 14.4991 17.9083 14.2266 19.8906 13.8766V10.1884L11.2627 8.66579C11.0589 8.62981 10.854 8.61209 10.6505 8.61209Z" fill="#6C4B76"/>
<path d="M10.673 13.7182C9.74351 13.7182 8.9873 12.962 8.9873 12.0325C8.9873 11.1029 9.74351 10.3467 10.673 10.3467C11.6025 10.3467 12.3588 11.1029 12.3588 12.0325C12.3588 12.962 11.6025 13.7182 10.673 13.7182ZM10.673 11.4227C10.3368 11.4227 10.0633 11.6963 10.0633 12.0325C10.0633 12.3687 10.3368 12.6422 10.673 12.6422C11.0092 12.6422 11.2828 12.3687 11.2828 12.0325C11.2828 11.6963 11.0092 11.4227 10.673 11.4227Z" fill="#6C4B76"/>
<path d="M23.9076 16.014C23.8511 16.014 23.7942 16.0051 23.7391 15.9869L20.2601 14.8392C20.0396 14.7664 19.8906 14.5604 19.8906 14.3283V9.73736C19.8906 9.50516 20.0396 9.29917 20.2601 9.22644L23.7391 8.07871C23.903 8.02466 24.0831 8.05249 24.2229 8.15367C24.3628 8.25481 24.4457 8.41697 24.4457 8.58963V15.476C24.4457 15.6486 24.3628 15.8108 24.2229 15.9119C24.13 15.9791 24.0194 16.014 23.9076 16.014ZM20.9666 13.9392L23.3697 14.732V9.33361L20.9666 10.1264V13.9392Z" fill="#6C4B76"/>
<path d="M13.0109 22.8995C12.0593 22.8995 11.2502 22.219 11.0871 21.2815L10.1828 16.0821C10.1558 15.9269 10.1981 15.7676 10.2988 15.6463C10.3994 15.5251 10.548 15.454 10.7055 15.4519C10.9946 15.448 11.0396 15.4414 12.3105 15.215C12.6091 15.1618 12.9733 15.097 13.422 15.0178C13.5628 14.993 13.7078 15.0252 13.8248 15.1075C13.9419 15.1897 14.0213 15.3152 14.0456 15.4562L14.9352 20.615C15.0333 21.1838 14.8763 21.7633 14.5044 22.2048C14.1326 22.6463 13.5882 22.8995 13.0109 22.8995ZM11.3431 16.4744L12.1472 21.0971C12.2204 21.518 12.5836 21.8235 13.0109 21.8235C13.2701 21.8235 13.5145 21.7098 13.6814 21.5116C13.8484 21.3134 13.9189 21.0533 13.8749 20.7979L13.0771 16.1716C12.8608 16.21 12.6693 16.2441 12.4992 16.2744C11.9177 16.3779 11.5772 16.4385 11.3431 16.4744Z" fill="#6C4B76"/>
<path d="M16.1249 25.7694C15.2189 25.7695 14.367 25.4185 13.7233 24.7795C13.0749 24.136 12.7178 23.2698 12.7178 22.3409C12.7178 22.0438 12.9587 21.8029 13.2558 21.8029C13.5529 21.8029 13.7938 22.0438 13.7938 22.3409C13.7938 22.9809 14.0379 23.5758 14.4813 24.0159C14.9219 24.4532 15.505 24.6934 16.1251 24.6934C16.1311 24.6934 16.137 24.6934 16.143 24.6934C17.4186 24.6838 18.4564 23.6219 18.4564 22.3262V20.497C18.4564 19.4884 19.277 18.6678 20.2856 18.6678C21.2942 18.6678 22.1148 19.4884 22.1148 20.497V25.2314C22.1148 25.5285 21.8739 25.7693 21.5768 25.7693C21.2797 25.7693 21.0388 25.5285 21.0388 25.2314V20.497C21.0388 20.0817 20.7009 19.7438 20.2856 19.7438C19.8703 19.7438 19.5324 20.0817 19.5324 20.497V22.3262C19.5324 24.2108 18.0155 25.7554 16.151 25.7693C16.1423 25.7694 16.1336 25.7694 16.1249 25.7694Z" fill="#6C4B76"/>
</g>
<defs>
<clipPath id="clip0_454_2463">
<rect width="18.3636" height="18.3636" fill="white" transform="translate(6.08203 7.47058)"/>
</clipPath>
</defs>
</svg>
