<svg width="31" height="34" viewBox="0 0 31 34" fill="none" xmlns="http://www.w3.org/2000/svg">
<path d="M23.4263 8.29413H7.42341C6.08477 8.29625 5.00071 9.38102 5 10.7197V19.7302C5.00071 21.0689 6.08477 22.1536 7.42341 22.155H13.2977L11.1819 23.2773C10.5547 23.5686 10.991 24.5282 11.6246 24.2411C11.6607 24.2136 15.381 22.2547 15.4249 22.2258L19.1678 24.215C19.2442 24.256 19.329 24.2772 19.416 24.2772C19.957 24.2991 20.155 23.5142 19.6678 23.2773L17.552 22.155H23.4263C24.7642 22.1536 25.8483 21.0689 25.8497 19.7309V10.7197C25.849 9.38102 24.7649 8.29625 23.4263 8.29413ZM24.789 19.7295C24.789 20.4826 24.1794 21.0929 23.4263 21.0936H7.42341C6.671 21.0929 6.06144 20.4826 6.06073 19.7302V10.7197C6.06073 9.96655 6.6703 9.35627 7.42341 9.35557H23.4263C24.1787 9.35627 24.7883 9.96655 24.789 10.719V19.7295Z" fill="#6C4B76"/>
<path d="M14.4897 12.7753H10.4972C10.2044 12.7753 9.9668 13.0129 9.9668 13.3056C9.9668 13.5984 10.2044 13.836 10.4972 13.836H11.9631V17.1426C11.9631 17.4354 12.2007 17.673 12.4935 17.673C12.7862 17.673 13.0238 17.4354 13.0238 17.1426V13.836H14.4897C15.1835 13.8332 15.1835 12.7788 14.4897 12.7753Z" fill="#6C4B76"/>
<path d="M20.5849 12.8292C20.3219 12.7005 20.0043 12.8101 19.8756 13.0732L18.4811 15.9315L17.0873 13.0718C16.7797 12.4495 15.8293 12.9119 16.132 13.5385L18.0045 17.3755C18.187 17.7609 18.7746 17.7637 18.9578 17.3755L20.8289 13.5385C20.9576 13.2754 20.848 12.9579 20.5849 12.8292Z" fill="#6C4B76"/>
</svg>
