<svg width="63" height="63" viewBox="0 0 63 63" fill="none" xmlns="http://www.w3.org/2000/svg">
<path d="M50.8932 38.5006C50.6249 38.769 50.3064 38.9818 49.9558 39.1271C49.6052 39.2723 49.2295 39.3471 48.85 39.3471C48.4705 39.3471 48.0948 39.2723 47.7442 39.1271C47.3936 38.9818 47.0751 38.769 46.8068 38.5006C46.0318 37.7267 44.9813 37.292 43.8861 37.292C42.7908 37.292 41.7404 37.7267 40.9653 38.5006C40.423 39.0416 39.6882 39.3454 38.9221 39.3454C38.1561 39.3454 37.4213 39.0416 36.8789 38.5006C36.1039 37.7267 35.0534 37.292 33.9582 37.292C32.8629 37.292 31.8125 37.7267 31.0374 38.5006C30.495 39.0416 29.7602 39.3454 28.9941 39.3454C28.228 39.3454 27.4931 39.0416 26.9507 38.5006C26.1757 37.7267 25.1252 37.292 24.03 37.292C22.9347 37.292 21.8842 37.7267 21.1092 38.5006C20.5668 39.0416 19.8319 39.3454 19.0658 39.3454C18.2997 39.3454 17.5649 39.0416 17.0225 38.5006C16.6392 38.1165 16.184 37.8118 15.6829 37.604C15.1817 37.3961 14.6445 37.2891 14.1019 37.2891C13.5594 37.2891 13.0222 37.3961 12.521 37.604C12.0199 37.8118 11.5646 38.1165 11.1814 38.5006C11.0652 38.6169 10.9999 38.7747 11 38.9391C11.0001 39.1036 11.0655 39.2613 11.1818 39.3775C11.2982 39.4937 11.4559 39.559 11.6204 39.5589C11.7848 39.5588 11.9425 39.4934 12.0587 39.3771C12.327 39.1087 12.6455 38.8958 12.9961 38.7506C13.3467 38.6053 13.7225 38.5305 14.1019 38.5305C14.4814 38.5305 14.8572 38.6053 15.2077 38.7506C15.5583 38.8958 15.8769 39.1087 16.1451 39.3771C16.9203 40.1506 17.9707 40.585 19.0658 40.585C20.1609 40.585 21.2113 40.1506 21.9865 39.3771C22.529 38.836 23.2638 38.5322 24.03 38.5322C24.7961 38.5322 25.5309 38.836 26.0734 39.3771C26.8486 40.1506 27.899 40.585 28.9941 40.585C30.0892 40.585 31.1396 40.1506 31.9149 39.3771C32.4572 38.836 33.192 38.5322 33.958 38.5322C34.7241 38.5322 35.4588 38.836 36.0012 39.3771C36.7764 40.1506 37.8268 40.585 38.9219 40.585C40.017 40.585 41.0675 40.1506 41.8427 39.3771C42.385 38.836 43.1198 38.5322 43.8858 38.5322C44.6519 38.5322 45.3867 38.836 45.929 39.3771C46.3124 39.7609 46.7677 40.0653 47.2689 40.2731C47.77 40.4808 48.3072 40.5877 48.8497 40.5877C49.3923 40.5877 49.9294 40.4808 50.4306 40.2731C50.9318 40.0653 51.3871 39.7609 51.7705 39.3771C51.828 39.3194 51.8737 39.2511 51.9048 39.1758C51.9359 39.1006 51.9519 39.0199 51.9519 38.9385C51.9518 38.8571 51.9358 38.7765 51.9046 38.7013C51.8734 38.626 51.8277 38.5577 51.7701 38.5002C51.7125 38.4426 51.6441 38.397 51.5688 38.3659C51.4936 38.3347 51.4129 38.3187 51.3315 38.3188C51.2501 38.3188 51.1695 38.3349 51.0943 38.3661C51.019 38.3973 50.9507 38.443 50.8932 38.5006Z" fill="#6C4B76"/>
<path d="M50.8938 44.7047C50.6256 44.9734 50.3072 45.1865 49.9566 45.3319C49.606 45.4773 49.2301 45.5521 48.8506 45.5521C48.4711 45.5521 48.0952 45.4773 47.7446 45.3319C47.3941 45.1865 47.0756 44.9734 46.8074 44.7047C46.0322 43.9312 44.9818 43.4968 43.8867 43.4968C42.7916 43.4968 41.7412 43.9312 40.966 44.7047C40.4238 45.2461 39.6889 45.5502 38.9227 45.5502C38.1566 45.5502 37.4217 45.2461 36.8795 44.7047C36.1043 43.9312 35.0539 43.4968 33.9588 43.4968C32.8637 43.4968 31.8133 43.9312 31.0381 44.7047C30.4958 45.2461 29.7609 45.5502 28.9947 45.5502C28.2284 45.5502 27.4935 45.2461 26.9513 44.7047C26.1761 43.9312 25.1257 43.4968 24.0306 43.4968C22.9354 43.4968 21.885 43.9312 21.1098 44.7047C20.5676 45.2461 19.8327 45.5502 19.0664 45.5502C18.3002 45.5502 17.5653 45.2461 17.0231 44.7047C16.6397 44.321 16.1844 44.0165 15.6833 43.8088C15.1822 43.6011 14.645 43.4941 14.1025 43.4941C13.5601 43.4941 13.0229 43.6011 12.5218 43.8088C12.0207 44.0165 11.5654 44.321 11.182 44.7047C11.0655 44.8211 11.0001 44.9789 11 45.1435C10.9999 45.3081 11.0652 45.466 11.1816 45.5825C11.2979 45.6989 11.4558 45.7644 11.6204 45.7645C11.785 45.7646 11.9429 45.6993 12.0593 45.5829C12.3275 45.3143 12.646 45.1012 12.9966 44.9558C13.3472 44.8104 13.723 44.7356 14.1025 44.7356C14.4821 44.7356 14.8579 44.8104 15.2085 44.9558C15.5591 45.1012 15.8776 45.3143 16.1457 45.5829C16.9209 46.3564 17.9713 46.7908 19.0664 46.7908C20.1615 46.7908 21.2119 46.3564 21.9871 45.5829C22.5294 45.0415 23.2643 44.7374 24.0306 44.7374C24.7968 44.7374 25.5317 45.0415 26.074 45.5829C26.8492 46.3564 27.8996 46.7908 28.9947 46.7908C30.0898 46.7908 31.1402 46.3564 31.9155 45.5829C32.4576 45.0415 33.1925 44.7374 33.9586 44.7374C34.7248 44.7374 35.4597 45.0415 36.0018 45.5829C36.777 46.3564 37.8274 46.7908 38.9225 46.7908C40.0177 46.7908 41.0681 46.3564 41.8433 45.5829C42.3854 45.0415 43.1203 44.7374 43.8864 44.7374C44.6526 44.7374 45.3875 45.0415 45.9296 45.5829C46.313 45.9667 46.7683 46.2712 47.2695 46.4789C47.7706 46.6867 48.3078 46.7936 48.8503 46.7936C49.3929 46.7936 49.93 46.6867 50.4312 46.4789C50.9324 46.2712 51.3877 45.9667 51.7711 45.5829C51.8875 45.4666 51.953 45.3087 51.9531 45.1441C51.9532 44.9795 51.8879 44.8216 51.7715 44.7052C51.6552 44.5887 51.4973 44.5232 51.3327 44.5232C51.1681 44.5231 51.0102 44.5884 50.8938 44.7047Z" fill="#6C4B76"/>
<path d="M50.8935 50.9127C50.6254 51.1813 50.3069 51.3944 49.9563 51.5398C49.6057 51.6852 49.2299 51.7601 48.8503 51.7601C48.4708 51.7601 48.095 51.6852 47.7444 51.5398C47.3938 51.3944 47.0753 51.1813 46.8072 50.9127C46.0319 50.1392 44.9815 49.7048 43.8864 49.7048C42.7913 49.7048 41.7409 50.1392 40.9657 50.9127C40.4235 51.4541 39.6887 51.7582 38.9225 51.7582C38.1563 51.7582 37.4214 51.4541 36.8793 50.9127C36.104 50.1392 35.0536 49.7048 33.9585 49.7048C32.8634 49.7048 31.813 50.1392 31.0378 50.9127C30.4956 51.4541 29.7606 51.7582 28.9944 51.7582C28.2282 51.7582 27.4933 51.4541 26.951 50.9127C26.1758 50.1392 25.1254 49.7048 24.0303 49.7048C22.9352 49.7048 21.8848 50.1392 21.1095 50.9127C20.5673 51.4541 19.8324 51.7582 19.0662 51.7582C18.2999 51.7582 17.565 51.4541 17.0228 50.9127C16.6394 50.5289 16.1841 50.2245 15.683 50.0168C15.1819 49.8091 14.6447 49.7021 14.1023 49.7021C13.5598 49.7021 13.0226 49.8091 12.5215 50.0168C12.0204 50.2245 11.5651 50.5289 11.1817 50.9127C11.0654 51.0291 11 51.1869 11 51.3514C11 51.5159 11.0653 51.6737 11.1817 51.7901C11.298 51.9064 11.4558 51.9718 11.6204 51.9718C11.7849 51.9718 11.9427 51.9065 12.0591 51.7901C12.3273 51.5218 12.6459 51.3089 12.9965 51.1636C13.347 51.0184 13.7228 50.9436 14.1023 50.9436C14.4817 50.9436 14.8575 51.0184 15.2081 51.1636C15.5587 51.3089 15.8772 51.5218 16.1455 51.7901C16.9207 52.5636 17.9711 52.9981 19.0662 52.9981C20.1613 52.9981 21.2117 52.5636 21.9869 51.7901C22.5293 51.2491 23.2642 50.9452 24.0303 50.9452C24.7964 50.9452 25.5313 51.2491 26.0737 51.7901C26.8489 52.5636 27.8993 52.9981 28.9945 52.9981C30.0896 52.9981 31.14 52.5636 31.9152 51.7901C32.4575 51.2491 33.1923 50.9452 33.9584 50.9452C34.7244 50.9452 35.4592 51.2491 36.0015 51.7901C36.7767 52.5636 37.8271 52.9981 38.9223 52.9981C40.0174 52.9981 41.0678 52.5636 41.843 51.7901C42.3853 51.2491 43.1201 50.9452 43.8862 50.9452C44.6522 50.9452 45.387 51.2491 45.9293 51.7901C46.3128 52.1739 46.7681 52.4784 47.2692 52.6861C47.7704 52.8938 48.3076 53.0007 48.8501 53.0007C49.3926 53.0007 49.9298 52.8938 50.4309 52.6861C50.9321 52.4784 51.3874 52.1739 51.7708 51.7901C51.8872 51.6738 51.9525 51.516 51.9526 51.3515C51.9526 51.1869 51.8872 51.0291 51.7709 50.9128C51.6545 50.7964 51.4967 50.731 51.3322 50.731C51.1676 50.731 51.0098 50.7964 50.8935 50.9127Z" fill="#6C4B76"/>
<path d="M42.6667 22.4167H39.4058L40.7417 21.0808C40.9692 20.8533 40.9692 20.4858 40.7417 20.2583C40.5142 20.0308 40.1467 20.0308 39.9192 20.2583L37.7608 22.4167H32.4117L36.1975 18.6308H39.2542C39.575 18.6308 39.8375 18.3683 39.8375 18.0475C39.8375 17.7267 39.575 17.4642 39.2542 17.4642H37.3583L39.6625 15.16C39.89 14.9325 39.89 14.565 39.6625 14.3375C39.435 14.11 39.0675 14.11 38.84 14.3375L36.5358 16.6417V14.7517C36.5358 14.4308 36.2733 14.1683 35.9525 14.1683C35.6317 14.1683 35.3692 14.4308 35.3692 14.7517V17.8083L31.5833 21.5942V16.245L33.7475 14.0808C33.975 13.8533 33.975 13.4858 33.7475 13.2583C33.52 13.0308 33.1525 13.0308 32.925 13.2583L31.5833 14.5942V11.3333C31.5833 11.0125 31.3208 10.75 31 10.75C30.6792 10.75 30.4167 11.0125 30.4167 11.3333V14.5942L29.0808 13.2583C28.8533 13.0308 28.4858 13.0308 28.2583 13.2583C28.0308 13.4858 28.0308 13.8533 28.2583 14.0808L30.4167 16.2392V21.5883L26.6308 17.8025V14.7517C26.6308 14.4308 26.3683 14.1683 26.0475 14.1683C25.7267 14.1683 25.4642 14.4308 25.4642 14.7517V16.6417L23.16 14.3375C22.9325 14.11 22.565 14.11 22.3375 14.3375C22.11 14.565 22.11 14.9325 22.3375 15.16L24.6417 17.4642H22.7517C22.4308 17.4642 22.1683 17.7267 22.1683 18.0475C22.1683 18.3683 22.4308 18.6308 22.7517 18.6308H25.8083L29.5942 22.4167H24.245L22.0808 20.2525C21.8533 20.025 21.4858 20.025 21.2583 20.2525C21.0308 20.48 21.0308 20.8475 21.2583 21.075L22.5942 22.4167H19.3333C19.0125 22.4167 18.75 22.6792 18.75 23C18.75 23.3208 19.0125 23.5833 19.3333 23.5833H22.5942L21.2583 24.9192C21.0308 25.1467 21.0308 25.5142 21.2583 25.7417C21.3692 25.8583 21.515 25.9167 21.6667 25.9167C21.8183 25.9167 21.9642 25.8583 22.0808 25.7475L24.2392 23.5833H29.5883L25.8025 27.3692H22.7517C22.4308 27.3692 22.1683 27.6317 22.1683 27.9525C22.1683 28.2733 22.4308 28.5358 22.7517 28.5358H24.6417L22.3375 30.84C22.11 31.0675 22.11 31.435 22.3375 31.6625C22.4542 31.7792 22.6 31.8317 22.7517 31.8317C22.9033 31.8317 23.0492 31.7733 23.1658 31.6625L25.47 29.3583V31.2483C25.47 31.5692 25.7325 31.8317 26.0533 31.8317C26.3742 31.8317 26.6367 31.5692 26.6367 31.2483V28.1917L30.4167 24.4058V29.755L28.2525 31.9192C28.025 32.1467 28.025 32.5142 28.2525 32.7417C28.48 32.9692 28.8475 32.9692 29.075 32.7417L30.4167 31.4058V34.6667C30.4167 34.9875 30.6792 35.25 31 35.25C31.3208 35.25 31.5833 34.9875 31.5833 34.6667V31.4058L32.9192 32.7417C33.0358 32.8583 33.1817 32.9167 33.3333 32.9167C33.485 32.9167 33.6308 32.8583 33.7475 32.7475C33.975 32.52 33.975 32.1525 33.7475 31.925L31.5833 29.7608V24.4117L35.3692 28.1975V31.2542C35.3692 31.575 35.6317 31.8375 35.9525 31.8375C36.2733 31.8375 36.5358 31.575 36.5358 31.2542V29.3583L38.84 31.6625C38.9567 31.7792 39.1025 31.8317 39.2542 31.8317C39.4058 31.8317 39.5517 31.7733 39.6683 31.6625C39.8958 31.435 39.8958 31.0675 39.6683 30.84L37.3642 28.5358H39.2542C39.575 28.5358 39.8375 28.2733 39.8375 27.9525C39.8375 27.6317 39.575 27.3692 39.2542 27.3692H36.1917L32.4058 23.5833H37.755L39.9192 25.7475C40.0358 25.8583 40.1817 25.9167 40.3333 25.9167C40.485 25.9167 40.6308 25.8583 40.7475 25.7475C40.975 25.52 40.975 25.1525 40.7475 24.925L39.4058 23.5833H42.6667C42.9875 23.5833 43.25 23.3208 43.25 23C43.25 22.6792 42.9875 22.4167 42.6667 22.4167Z" fill="#6C4B76"/>
</svg>
