<svg width="31" height="34" viewBox="0 0 31 34" fill="none" xmlns="http://www.w3.org/2000/svg">
<path d="M25.0444 13.3425C24.7022 13.3425 24.3649 13.4403 24.0667 13.6163V13.3425C24.0667 11.7194 23.2453 10.8981 21.6222 10.8981H10.3778C8.75467 10.8981 7.93333 11.7194 7.93333 13.3425V13.6163C7.6351 13.4403 7.29776 13.3474 6.95557 13.3425C5.8751 13.3425 5 14.2176 5 15.2981V19.2092C5 20.2896 5.8751 21.1647 6.95557 21.1647H7.93333V22.1425C7.93333 22.4114 8.15333 22.6314 8.42224 22.6314C8.69114 22.6314 8.91114 22.4114 8.91114 22.1425V21.1647H23.0889V22.1425C23.0889 22.4114 23.3089 22.6314 23.5778 22.6314C23.8467 22.6314 24.0667 22.4114 24.0667 22.1425V21.1647H25.0396C26.12 21.1647 27 20.2896 27 19.2092V15.2981C27 14.2176 26.1249 13.3425 25.0444 13.3425ZM8.9111 13.3425C8.9111 12.2621 9.29243 11.8758 10.3778 11.8758H21.6222C22.7026 11.8758 23.0889 12.2621 23.0889 13.3425V16.7647H8.9111V13.3425ZM26.0222 19.2092C26.0222 19.7518 25.5773 20.1869 25.0396 20.1869H6.95557C6.41781 20.1869 5.97781 19.7469 5.97781 19.2092V15.2981C5.97781 14.7603 6.41781 14.3203 6.95557 14.3203C7.49333 14.3203 7.93333 14.7603 7.93333 15.2981V17.7425H24.0667V15.2981C24.0667 14.7603 24.5067 14.3203 25.0444 14.3203C25.5822 14.3203 26.0222 14.7603 26.0222 15.2981V19.2092H26.0222Z" fill="#6C4B76"/>
</svg>
