<svg width="63" height="63" viewBox="0 0 63 63" fill="none" xmlns="http://www.w3.org/2000/svg">
<path d="M53.6299 28.8898C51.3509 27.7205 48.8895 26.9803 46.3605 26.7039C46.5829 23.7336 46.3954 20.7457 45.8036 17.8304C45.7655 17.6593 45.6684 17.5086 45.5307 17.4065C45.3929 17.3043 45.2239 17.2578 45.0554 17.2756C42.1259 17.6721 39.3089 18.6995 36.7855 20.2917C35.5095 17.2823 33.713 14.5402 31.4847 12.2008C31.3549 12.0719 31.1821 12 31.0023 12C30.8225 12 30.6497 12.0719 30.5199 12.2008C28.2914 14.5414 26.4946 17.2844 25.2181 20.2945C22.6936 18.7005 19.8749 17.6721 16.9436 17.2756C16.7756 17.2608 16.608 17.3085 16.4708 17.4101C16.3337 17.5118 16.236 17.6608 16.1953 17.8304C15.6051 20.7404 15.4173 23.7226 15.6376 26.6874C13.1079 26.9684 10.6468 27.7142 8.36956 28.8898C8.23366 28.9646 8.12551 29.084 8.06202 29.2293C7.99853 29.3746 7.98327 29.5376 8.01862 29.6928C8.11167 30.105 10.3817 39.8426 16.7451 43.3551C16.9 43.4395 17.0563 43.5142 17.2121 43.5908C16.5635 44.1441 16.028 44.8262 15.6373 45.5969C15.2465 46.3677 15.0083 47.2115 14.9366 48.079C14.9325 48.1918 14.9539 48.304 14.9991 48.4067C15.0442 48.5094 15.1119 48.5998 15.1967 48.6706C17.1076 50.0609 19.3874 50.8032 21.7222 50.7953C23.5918 50.7814 25.4333 50.3222 27.1044 49.4532C28.2919 50.0663 29.5275 50.5741 30.7978 50.9709C30.928 51.0097 31.0662 51.0097 31.1965 50.9709C32.4686 50.5731 33.706 50.0647 34.8955 49.4512C36.568 50.3214 38.4111 50.7813 40.2824 50.7953C42.617 50.8026 44.8964 50.0603 46.8074 48.6706C46.8923 48.5998 46.96 48.5095 47.0052 48.4068C47.0505 48.3041 47.072 48.1918 47.068 48.079C46.996 47.2112 46.7574 46.367 46.3661 45.5961C45.9749 44.8252 45.4389 44.1431 44.7896 43.5899C44.9445 43.5132 45.1003 43.4395 45.2533 43.3551C51.6178 39.8426 53.8878 30.105 53.9818 29.6928C54.0167 29.5375 54.0012 29.3745 53.9375 29.2293C53.8739 29.0841 53.7657 28.9647 53.6299 28.8898ZM44.5711 18.8089C44.9651 21.0627 45.9805 28.6948 42.8426 33.9947C40.2909 38.3016 35.5838 40.053 32.919 40.728C34.91 38.2522 38.2595 33.2141 38.2595 27.2809C38.2434 25.3718 37.9193 23.4788 37.3007 21.6805C39.5216 20.2439 41.9909 19.2687 44.5711 18.8089ZM31.0023 13.7651C32.4843 15.434 36.8655 20.9113 36.8655 27.2809C36.8655 33.6524 32.4828 39.1297 31.0018 40.7978C29.5199 39.1317 25.1395 33.664 25.1395 27.2809C25.1395 20.9113 29.5203 15.434 31.0023 13.7651ZM17.4283 18.8089C20.0101 19.2698 22.4807 20.2467 24.7025 21.6852C24.0849 23.4822 23.7612 25.3735 23.745 27.2809C23.745 33.2169 27.0983 38.2579 29.0889 40.7309C26.4273 40.0617 21.7175 38.3171 19.1574 33.9947C16.0184 28.6948 17.0348 21.0627 17.4283 18.8089ZM9.51927 29.9188C11.5084 28.9863 13.6279 28.3872 15.7985 28.144C16.0832 30.4752 16.8215 32.7223 17.9688 34.7492C20.7507 39.4469 25.6842 41.3603 28.5985 42.1089C25.9696 43.0875 21.3061 44.2367 17.4007 42.0798C12.4191 39.3305 10.0916 31.997 9.51927 29.9188ZM16.3727 47.7687C16.4933 47.0256 16.7754 46.3206 17.1976 45.707C17.6198 45.0934 18.171 44.5874 18.8097 44.227C20.0154 44.5897 21.2654 44.7699 22.5209 44.7623C23.0263 44.7623 23.5237 44.7342 24.0104 44.6876C23.8381 45.0131 23.7453 45.3774 23.7399 45.7486C23.8191 46.3335 24.0301 46.8908 24.3557 47.3756C24.6814 47.8603 25.1126 48.2587 25.6144 48.5387C24.1291 49.1959 22.5118 49.4692 20.9019 49.335C19.292 49.2009 17.7377 48.6634 16.3727 47.7687ZM30.9971 49.523C28.5601 48.7355 25.1338 47.0491 25.1338 45.7486C25.1338 45.3093 25.5307 44.8263 26.1428 44.3492C27.8204 43.9794 29.4505 43.4075 30.9999 42.6453C32.5455 43.4057 34.1716 43.9766 35.845 44.3463C36.4613 44.8243 36.8599 45.3073 36.8599 45.7486C36.8599 47.0491 33.4347 48.7355 30.9971 49.523ZM45.6319 47.7687C44.2658 48.6661 42.7093 49.2054 41.097 49.3399C39.4847 49.4743 37.8651 49.2 36.378 48.5406C36.8802 48.2604 37.3117 47.8616 37.6375 47.3766C37.9634 46.8916 38.1746 46.3339 38.2539 45.7486C38.2482 45.3767 38.1541 45.012 37.9801 44.6866C38.4697 44.7342 38.9698 44.7623 39.479 44.7623C40.7354 44.7698 41.9862 44.5888 43.1925 44.225C43.8316 44.5856 44.3833 45.092 44.8059 45.7059C45.2285 46.3198 45.5109 47.0251 45.6319 47.7687ZM44.5992 42.0798C40.7035 44.2309 36.034 43.0846 33.4037 42.108C36.319 41.3584 41.2497 39.444 44.0306 34.7492C45.1762 32.7256 45.9141 30.4822 46.1995 28.1547C48.37 28.3959 50.4901 28.9913 52.4811 29.9188C51.9098 31.998 49.5883 39.3257 44.5992 42.0798Z" fill="#6C4B76"/>
</svg>
