<svg width="31" height="34" viewBox="0 0 31 34" fill="none" xmlns="http://www.w3.org/2000/svg">
<path d="M24.6875 9.76477H6.3125C5.58886 9.76477 5 10.3536 5 11.0773V22.4523C5 23.1759 5.58886 23.7648 6.3125 23.7648H24.6875C25.4112 23.7648 26 23.1759 26 22.4523V11.0773C26 10.3537 25.4112 9.76477 24.6875 9.76477ZM20.75 22.8898H6.3125C6.071 22.8898 5.87499 22.6929 5.87499 22.4523V11.0773C5.87499 10.8358 6.071 10.6398 6.3125 10.6398H20.75V22.8898ZM25.125 22.4523C25.125 22.6929 24.929 22.8898 24.6875 22.8898H21.625V10.6398H24.6875C24.929 10.6398 25.125 10.8358 25.125 11.0773V22.4523Z" fill="#6C4B76"/>
<path d="M23.375 13.2658C23.8582 13.2658 24.25 12.8741 24.25 12.3909C24.25 11.9076 23.8582 11.5159 23.375 11.5159C22.8917 11.5159 22.5 11.9076 22.5 12.3909C22.5 12.8741 22.8917 13.2658 23.375 13.2658Z" fill="#6C4B76"/>
<path d="M23.375 15.8897C23.8582 15.8897 24.25 15.498 24.25 15.0148C24.25 14.5315 23.8582 14.1398 23.375 14.1398C22.8917 14.1398 22.5 14.5315 22.5 15.0148C22.5 15.498 22.8917 15.8897 23.375 15.8897Z" fill="#6C4B76"/>
<path d="M23.375 18.5147C23.8582 18.5147 24.25 18.123 24.25 17.6398C24.25 17.1565 23.8582 16.7648 23.375 16.7648C22.8917 16.7648 22.5 17.1565 22.5 17.6398C22.5 18.123 22.8917 18.5147 23.375 18.5147Z" fill="#6C4B76"/>
<path d="M8.06251 21.1398H18.5625C18.804 21.1398 19 20.9438 19 20.7023V12.8273C19 12.5858 18.804 12.3898 18.5625 12.3898H8.06251C7.82101 12.3898 7.625 12.5858 7.625 12.8273V20.7023C7.625 20.9438 7.82101 21.1398 8.06251 21.1398ZM8.49999 13.2648H18.125V20.2648H8.49999V13.2648Z" fill="#6C4B76"/>
</svg>
