<svg width="31" height="34" viewBox="0 0 31 34" fill="none" xmlns="http://www.w3.org/2000/svg">
<g clip-path="url(#clip0_454_2393)">
<path d="M22.3639 10.0479C20.6641 8.34804 18.404 7.41187 16 7.41187C13.596 7.41187 11.3359 8.34804 9.63602 10.0479C7.93614 11.7478 7 14.0079 7 16.4119C7 18.8158 7.93614 21.0759 9.63602 22.7758C11.3359 24.4757 13.596 25.4119 16 25.4119C18.404 25.4119 20.6641 24.4757 22.3639 22.7758C24.0638 21.0759 25 18.8158 25 16.4119C25 14.0079 24.0638 11.7478 22.3639 10.0479ZM16 24.3572C11.6189 24.3572 8.05469 20.7929 8.05469 16.4119C8.05469 12.0308 11.6189 8.46655 16 8.46655C20.3811 8.46655 23.9453 12.0308 23.9453 16.4119C23.9453 20.7929 20.3811 24.3572 16 24.3572Z" fill="#6C4B76"/>
<path d="M20.3 13.5242C20.0941 13.3183 19.7601 13.3183 19.5542 13.5242L14.8975 18.181L12.4461 15.7296C12.2402 15.5237 11.9063 15.5237 11.7004 15.7296C11.4944 15.9355 11.4944 16.2694 11.7004 16.4754L14.5246 19.2996C14.6275 19.4026 14.7625 19.454 14.8974 19.454C15.0324 19.454 15.1674 19.4025 15.2703 19.2996L20.3 14.2699C20.5059 14.064 20.5059 13.7301 20.3 13.5242Z" fill="#6C4B76"/>
</g>
<defs>
<clipPath id="clip0_454_2393">
<rect width="18" height="18" fill="white" transform="translate(7 7.41187)"/>
</clipPath>
</defs>
</svg>
