<svg width="31" height="34" viewBox="0 0 31 34" fill="none" xmlns="http://www.w3.org/2000/svg">
<g clip-path="url(#clip0_651_729)">
<path d="M25.4624 5.58838H6.53764C5.67538 5.58838 5 6.26376 5 7.12602V26.0507C5 26.913 5.67538 27.5884 6.53764 27.5884H25.4624C26.3246 27.5884 27 26.913 27 26.0507V7.12602C27 6.26376 26.3246 5.58838 25.4624 5.58838ZM26.2903 26.0507C26.2903 26.5151 25.9267 26.8787 25.4624 26.8787H6.53764C6.07349 26.8787 5.70967 26.5151 5.70967 26.0507V7.12602C5.70967 6.66187 6.07349 6.29805 6.53764 6.29805H25.4624C25.9267 6.29805 26.2903 6.66187 26.2903 7.12602V26.0507Z" fill="#6C4B76"/>
<path d="M11.2685 7.95398C9.11625 7.95398 7.36523 9.705 7.36523 11.8572C7.36523 14.0094 9.11625 15.7605 11.2685 15.7605C13.4207 15.7605 15.1717 14.0094 15.1717 11.8572C15.1717 9.705 13.4207 7.95398 11.2685 7.95398ZM11.2685 15.0507C9.50753 15.0507 8.07491 13.6181 8.07491 11.8572C8.07491 10.0962 9.50753 8.66361 11.2685 8.66361C13.0294 8.66361 14.462 10.0962 14.462 11.8572C14.462 13.6182 13.0295 15.0507 11.2685 15.0507Z" fill="#6C4B76"/>
<path d="M20.7312 17.4164C19.2311 17.4164 18.0107 18.6368 18.0107 20.1368C18.0107 21.6369 19.2311 22.8573 20.7312 22.8573C22.2312 22.8573 23.4516 21.6369 23.4516 20.1368C23.4516 18.6368 22.2312 17.4164 20.7312 17.4164ZM20.7312 22.1475C19.6224 22.1475 18.7204 21.2455 18.7204 20.1368C18.7204 19.028 19.6224 18.126 20.7312 18.126C21.8399 18.126 22.7419 19.028 22.7419 20.1368C22.7419 21.2455 21.8399 22.1475 20.7312 22.1475Z" fill="#6C4B76"/>
<path d="M11.2693 17.4164C9.76923 17.4164 8.54883 18.6368 8.54883 20.1368C8.54883 21.6369 9.76923 22.8573 11.2693 22.8573C12.7693 22.8573 13.9897 21.6369 13.9897 20.1368C13.9897 18.6368 12.7693 17.4164 11.2693 17.4164ZM11.2693 22.1475C10.1605 22.1475 9.2585 21.2455 9.2585 20.1368C9.2585 19.028 10.1605 18.126 11.2693 18.126C12.378 18.126 13.28 19.028 13.28 20.1368C13.28 21.2455 12.378 22.1475 11.2693 22.1475Z" fill="#6C4B76"/>
<path d="M20.7314 7.95398C18.5791 7.95398 16.8281 9.705 16.8281 11.8572C16.8281 14.0094 18.5791 15.7605 20.7314 15.7605C22.8836 15.7605 24.6346 14.0094 24.6346 11.8572C24.6346 9.705 22.8835 7.95398 20.7314 7.95398ZM20.7314 15.0507C18.9704 15.0507 17.5378 13.6181 17.5378 11.8572C17.5378 10.0962 18.9704 8.66361 20.7314 8.66361C22.4923 8.66361 23.9249 10.0962 23.9249 11.8572C23.9249 13.6182 22.4923 15.0507 20.7314 15.0507Z" fill="#6C4B76"/>
<path d="M12.4588 24.5132C9.92241 24.463 9.92146 24.4628 9.78641 24.6769C9.71994 24.7821 9.71332 24.9156 9.76892 25.0267C9.83114 25.1509 9.95653 25.2228 10.0866 25.2228C10.1188 25.2228 10.1514 25.2183 10.1834 25.2093C10.4079 25.1942 11.4828 25.2039 12.4449 25.2228C12.641 25.2276 12.8028 25.071 12.8066 24.8749C12.8103 24.679 12.6547 24.5172 12.4588 24.5132Z" fill="#6C4B76"/>
<path d="M19.0047 24.5131H18.9574C18.7615 24.5131 18.6025 24.672 18.6025 24.8679C18.6025 25.0637 18.7615 25.2227 18.9574 25.2227H19.0047C19.2005 25.2227 19.3595 25.0637 19.3595 24.8679C19.3595 24.672 19.2006 24.5131 19.0047 24.5131Z" fill="#6C4B76"/>
<path d="M20.1873 24.5131H20.14C19.9441 24.5131 19.7852 24.672 19.7852 24.8679C19.7852 25.0637 19.9441 25.2227 20.14 25.2227H20.1873C20.3832 25.2227 20.5421 25.0637 20.5421 24.8679C20.5421 24.672 20.3832 24.5131 20.1873 24.5131Z" fill="#6C4B76"/>
<path d="M21.3699 24.5131H21.3226C21.1268 24.5131 20.9678 24.672 20.9678 24.8679C20.9678 25.0637 21.1268 25.2227 21.3226 25.2227H21.3699C21.5658 25.2227 21.7248 25.0637 21.7248 24.8679C21.7248 24.672 21.5658 24.5131 21.3699 24.5131Z" fill="#6C4B76"/>
<path d="M22.5525 24.5131H22.5052C22.3094 24.5131 22.1504 24.672 22.1504 24.8679C22.1504 25.0637 22.3094 25.2227 22.5052 25.2227H22.5525C22.7484 25.2227 22.9074 25.0637 22.9074 24.8679C22.9074 24.672 22.7484 24.5131 22.5525 24.5131Z" fill="#6C4B76"/>
</g>
<defs>
<clipPath id="clip0_651_729">
<rect width="22" height="22" fill="white" transform="translate(5 5.58838)"/>
</clipPath>
</defs>
</svg>
