<svg width="31" height="34" viewBox="0 0 31 34" fill="none" xmlns="http://www.w3.org/2000/svg">
<g clip-path="url(#clip0_454_2349)">
<path d="M15.0699 25.4889C13.7309 25.4889 12.6416 24.4178 12.6416 23.1013C12.6416 21.7848 13.7309 20.7137 15.0699 20.7137C16.4089 20.7137 17.4983 21.7848 17.4983 23.1013C17.4983 24.4178 16.4089 25.4889 15.0699 25.4889ZM15.0699 22.2377C14.5856 22.2377 14.1916 22.6251 14.1916 23.1013C14.1916 23.5775 14.5856 23.9649 15.0699 23.9649C15.5542 23.9649 15.9483 23.5775 15.9483 23.1013C15.9483 22.6251 15.5542 22.2377 15.0699 22.2377Z" fill="#6C4B76"/>
<path d="M19.2783 19.7757C19.0799 19.7757 18.8816 19.7013 18.7303 19.5524C16.7117 17.5678 13.4274 17.5678 11.4089 19.5524C11.1063 19.85 10.6156 19.85 10.3129 19.5524C10.0103 19.2548 10.0103 18.7724 10.3129 18.4748C12.9358 15.8959 17.2034 15.8959 19.8263 18.4748C20.1289 18.7723 20.1289 19.2548 19.8263 19.5524C19.6749 19.7013 19.4766 19.7757 19.2783 19.7757Z" fill="#6C4B76"/>
<path d="M8.05524 17.0174C7.8569 17.0174 7.65855 16.943 7.50727 16.7941C7.20461 16.4966 7.20461 16.0141 7.50727 15.7165C9.52728 13.7304 12.2131 12.6365 15.0697 12.6365C17.9264 12.6365 20.6122 13.7304 22.6322 15.7165C22.9349 16.0141 22.9349 16.4966 22.6322 16.7941C22.3296 17.0917 21.8389 17.0917 21.5362 16.7941C19.809 15.0959 17.5124 14.1605 15.0697 14.1605C12.6271 14.1605 10.3305 15.0959 8.60327 16.7941C8.45194 16.9429 8.25359 17.0174 8.05524 17.0174Z" fill="#6C4B76"/>
<path d="M25.0068 14.0924C24.8084 14.0924 24.6101 14.018 24.4588 13.8692C21.9175 11.3706 18.583 9.99447 15.0696 9.99447C11.5561 9.99447 8.22169 11.3706 5.68042 13.8692C5.37781 14.1668 4.88708 14.1668 4.58442 13.8692C4.28176 13.5716 4.28176 13.0891 4.58442 12.7915C7.41843 10.005 11.1421 8.47046 15.0696 8.47046C18.997 8.47046 22.7207 10.005 25.5548 12.7916C25.8574 13.0892 25.8574 13.5716 25.5548 13.8692C25.4034 14.018 25.2051 14.0924 25.0068 14.0924Z" fill="#6C4B76"/>
</g>
<defs>
<clipPath id="clip0_454_2349">
<rect width="22.0364" height="17.4455" fill="white" transform="translate(4 8.47058)"/>
</clipPath>
</defs>
</svg>
