<svg width="31" height="34" viewBox="0 0 31 34" fill="none" xmlns="http://www.w3.org/2000/svg">
<g clip-path="url(#clip0_454_2318)">
<mask id="mask0_454_2318" style="mask-type:luminance" maskUnits="userSpaceOnUse" x="4" y="5" width="23" height="24">
<path d="M4 5.82355H27V28.8235H4V5.82355Z" fill="white"/>
</mask>
<g mask="url(#mask0_454_2318)">
<path d="M10.0869 18.5767C10.0869 17.7226 10.7793 17.0302 11.6335 17.0302C12.4877 17.0302 13.1801 17.7226 13.1801 18.5767" stroke="#6C4B76" stroke-width="1.28906" stroke-miterlimit="10"/>
<path d="M17.8203 18.5767C17.8203 17.7226 18.5127 17.0302 19.3669 17.0302C20.2211 17.0302 20.9135 17.7226 20.9135 18.5767" stroke="#6C4B76" stroke-width="1.28906" stroke-miterlimit="10"/>
<path d="M12.835 21.6699C13.373 22.5817 14.3649 23.1937 15.5002 23.1937C16.6356 23.1937 17.6275 22.5817 18.1655 21.6699" stroke="#6C4B76" stroke-width="1.28906" stroke-miterlimit="10"/>
<path d="M26.3262 18.3068C26.3262 19.5727 25.3123 20.6019 24.0518 20.6257C23.0329 24.3933 19.5901 27.1654 15.5 27.1654C11.4099 27.1654 7.96705 24.3933 6.94822 20.6257C5.68772 20.6019 4.67383 19.5727 4.67383 18.3068C4.67383 17.6662 4.93348 17.0863 5.35305 16.6663C5.76318 16.2566 6.32561 15.9996 6.94822 15.9879C7.96705 12.2203 11.4099 9.44822 15.5 9.44822C19.5901 9.44822 23.0329 12.2203 24.0518 15.9879C24.6744 15.9996 25.2368 16.2566 25.647 16.6663C26.0665 17.0863 26.3262 17.6662 26.3262 18.3068Z" stroke="#6C4B76" stroke-width="1.28906" stroke-miterlimit="10"/>
<path d="M12.6177 12.3306C12.6177 13.9227 13.9083 15.2133 15.5004 15.2133C17.0925 15.2133 18.3831 13.9227 18.3831 12.3306C18.3831 10.7385 17.0925 9.44789 15.5004 9.44789H15.0486C13.5898 9.44789 12.4072 8.26528 12.4072 6.80644" stroke="#6C4B76" stroke-width="1.28906" stroke-miterlimit="10"/>
<path d="M15.4998 9.44763H11.9549C10.496 9.44763 9.31348 8.26502 9.31348 6.80623" stroke="#6C4B76" stroke-width="1.28906" stroke-miterlimit="10"/>
</g>
</g>
<defs>
<clipPath id="clip0_454_2318">
<rect width="23" height="23" fill="white" transform="translate(4 5.82355)"/>
</clipPath>
</defs>
</svg>
