<svg width="63" height="63" viewBox="0 0 63 63" fill="none" xmlns="http://www.w3.org/2000/svg">
<g clip-path="url(#clip0_591_4633)">
<path d="M52.9662 42.2698H46.1268C46.1199 42.2009 46.1113 42.1306 46.1007 42.0588C47.5928 41.2479 48.6163 39.8021 48.8663 38.1238C48.8754 38.0631 48.8838 38.0016 48.8917 37.9394C48.9439 37.5258 49 35.5002 48.5564 34.8438C48.5441 34.48 48.2412 34.1959 47.8754 34.2073C47.5115 34.2196 47.2266 34.5245 47.2389 34.8884C47.2494 35.2001 48 36.0002 47.5837 37.7741C47.577 37.8267 47.5699 37.8786 47.5624 37.9297C47.3875 39.1035 46.7085 40.1268 45.7103 40.7589C44.7348 38.627 41.7799 35.9444 33.5468 34.3505C31.8316 34.0185 30.2353 33.777 28.7609 33.624C30.0321 33.261 31.4721 32.9586 33.0737 32.7207C40.639 31.597 45.7726 32.769 47.3427 35.2129C47.4686 35.4089 47.6811 35.5158 47.8979 35.5158C48.0199 35.5158 48.1433 35.482 48.2536 35.4111C48.5599 35.2144 48.6487 34.8065 48.4519 34.5002C47.9806 33.7666 47.0018 32.6851 46.135 32.2055C46.0655 30.3925 44.7561 29.0728 43.9789 28.4461C43.7198 28.2372 43.4384 28.0363 43.1357 27.8432C44.2838 26.177 44.5078 24.2093 43.8009 21.9917C43.2762 20.3455 41.7566 19.6294 40.5743 19.3184C35.8212 18.0685 27.3348 20.626 24.9098 22.876C24.2195 23.5164 23.846 24.2039 23.7947 24.9238C22.2104 25.2433 19.1514 26.9481 18.3253 29.0635C18.1506 29.6426 18.1712 29.6433 18.3994 29.927C18.6274 30.2107 19.0424 30.2558 19.3261 30.0276C22 24.5002 27.3981 25.4291 33.963 26.3556C38.2446 26.96 41.336 28.0085 43.1513 29.4723C43.6454 29.8707 44.4168 30.6193 44.7056 31.5886C44.2476 31.4365 43.7557 31.3076 43.2265 31.2047C40.6616 30.7065 37.1805 30.7778 32.8799 31.4166C29.8578 31.8656 27.3634 32.5425 25.4595 33.4282C24.6803 33.4227 23.9491 33.4506 23.2683 33.5129C22.3321 33.5987 21.4805 33.75 20.7153 33.9654C20.0666 33.3459 19.6507 32.5542 19.5124 31.6695C19.5044 31.6184 19.497 31.5666 19.4899 31.5141C19.386 30.7371 19.4209 30.0332 19.5938 29.4223C19.6929 29.072 19.4893 28.7077 19.139 28.6086C18.7888 28.5094 18.4243 28.7132 18.3253 29.0635C18.1031 29.8488 18.0554 30.7321 18.1833 31.6889C18.1917 31.7512 18.2006 31.8128 18.2101 31.8733C18.3604 32.8348 18.7577 33.7134 19.3688 34.4512C18.7107 34.7493 18.1419 35.1116 17.6665 35.5376C16.3005 36.7619 15.6974 38.4736 15.8741 40.6252C15.8796 40.6931 15.886 40.7603 15.8928 40.8262C15.945 41.3266 16.0614 41.8087 16.236 42.2696H10.0338C9.46371 42.2698 9 42.7335 9 43.3036V45.8326C9 46.4025 9.46371 46.8663 10.0338 46.8663H12.1895V48.8181C12.1895 49.5555 12.7894 50.1554 13.5267 50.1554H21.0455C21.7829 50.1554 22.3828 49.5554 22.3828 48.8181V46.8663H39.9238V48.8181C39.9238 49.5555 40.5237 50.1554 41.261 50.1554H48.7798C49.5172 50.1554 50.1171 49.5554 50.1171 48.8181V46.8663H52.9661C53.5362 46.8663 53.9999 46.4026 53.9999 45.8326V43.3036C54 42.7335 53.5363 42.2698 52.9662 42.2698ZM25.179 24.7085C25.2809 24.4256 25.49 24.1358 25.8062 23.8425C27.9266 21.8751 36.0146 19.4829 40.2387 20.5935C41.4934 20.9235 42.2692 21.5287 42.5445 22.3922C43.1432 24.2704 42.9577 25.8417 41.9786 27.1952C40.0168 26.2277 37.395 25.5089 34.1471 25.0505C30.5686 24.5453 27.5744 24.4327 25.179 24.7085ZM17.2038 40.6891C17.1979 40.6328 17.1925 40.5757 17.1878 40.5176C17.0466 38.7989 17.5036 37.4538 18.5461 36.5194C19.5769 35.5955 21.2062 35.0257 23.3885 34.8259C25.9457 34.5916 29.2792 34.8673 33.2961 35.645C42.8633 37.4972 44.5661 40.7084 44.798 42.2698H17.6772C17.4221 41.7781 17.2622 41.2484 17.2038 40.6891ZM21.0645 48.818C21.0645 48.8285 21.056 48.8369 21.0456 48.8369H13.5267C13.5163 48.8369 13.5078 48.8284 13.5078 48.818V46.8662H21.0645V48.818ZM48.7988 48.818C48.7988 48.8285 48.7904 48.8369 48.7799 48.8369H41.2611C41.2507 48.8369 41.2422 48.8284 41.2422 48.818V46.8662H48.7989L48.7988 48.818ZM52.6816 45.548H10.3184V43.5882H52.6816V45.548Z" fill="#6C4B76"/>
<path d="M20.0156 20.4493C20.0156 20.8133 20.3108 21.1085 20.6748 21.1085C21.0388 21.1085 21.334 20.8133 21.334 20.4493C21.334 19.9174 21.5468 19.6802 21.8687 19.3211C22.257 18.888 22.7402 18.3491 22.7402 17.3127C22.7402 16.2763 22.257 15.7373 21.8687 15.3043C21.5468 14.9452 21.334 14.7079 21.334 14.176C21.334 13.812 21.0388 13.5168 20.6748 13.5168C20.3108 13.5168 20.0156 13.812 20.0156 14.176C20.0156 15.2124 20.4988 15.7514 20.8871 16.1844C21.2091 16.5435 21.4219 16.7808 21.4219 17.3127C21.4219 17.8446 21.2092 18.0818 20.8871 18.4409C20.4988 18.874 20.0156 19.4129 20.0156 20.4493Z" fill="#6C4B76"/>
<path d="M24.0605 19.7774C24.0605 20.1415 24.3557 20.4366 24.7197 20.4366C25.0838 20.4366 25.3789 20.1415 25.3789 19.7774C25.3789 19.2455 25.5916 19.0083 25.9136 18.6492C26.3019 18.2161 26.7852 17.6772 26.7852 16.6408C26.7852 15.6044 26.3019 15.0654 25.9136 14.6324C25.5916 14.2733 25.3789 14.0361 25.3789 13.5042C25.3789 13.1401 25.0838 12.845 24.7197 12.845C24.3557 12.845 24.0605 13.1401 24.0605 13.5042C24.0605 14.5406 24.5438 15.0795 24.9321 15.5125C25.2541 15.8717 25.4668 16.1089 25.4668 16.6408C25.4668 17.1727 25.2541 17.4099 24.9321 17.769C24.5438 18.2021 24.0605 18.741 24.0605 19.7774Z" fill="#6C4B76"/>
</g>
<defs>
<clipPath id="clip0_591_4633">
<rect width="45" height="45" fill="white" transform="translate(9 9)"/>
</clipPath>
</defs>
</svg>
