<svg width="31" height="33" viewBox="0 0 31 33" fill="none" xmlns="http://www.w3.org/2000/svg">
<g clip-path="url(#clip0_454_2300)">
<path d="M22.6754 26.2004H7.52539C7.19856 26.2004 6.93359 25.9354 6.93359 25.6086V17.9941C6.93359 17.6673 7.19856 17.4023 7.52539 17.4023H22.6754C23.0022 17.4023 23.2672 17.6673 23.2672 17.9941V25.6086C23.2672 25.9354 23.0022 26.2004 22.6754 26.2004ZM8.11719 25.0168H22.0836V18.5859H8.11719V25.0168Z" fill="#6C4B76"/>
<path d="M23.4246 18.5855H6.77539C5.79644 18.5855 5 17.7891 5 16.8102V16.6523C5 15.6734 5.79644 14.877 6.77539 14.877H23.4246C24.4036 14.877 25.2 15.6734 25.2 16.6523V16.8102C25.2 17.7891 24.4036 18.5855 23.4246 18.5855ZM6.77539 16.0605C6.44907 16.0605 6.18359 16.326 6.18359 16.6523V16.8102C6.18359 17.1365 6.44907 17.402 6.77539 17.402H23.4246C23.7509 17.402 24.0164 17.1365 24.0164 16.8102V16.6523C24.0164 16.326 23.7509 16.0605 23.4246 16.0605H6.77539Z" fill="#6C4B76"/>
<path d="M13.5219 13.5356H6.57812C6.2513 13.5356 5.98633 13.2706 5.98633 12.9438V7.8938C5.98633 7.56697 6.2513 7.302 6.57812 7.302H13.5219C13.8487 7.302 14.1137 7.56697 14.1137 7.8938V12.9438C14.1137 13.2706 13.8487 13.5356 13.5219 13.5356ZM7.16992 12.352H12.9301V8.4856H7.16992V12.352Z" fill="#6C4B76"/>
<path d="M23.6215 16.0606H16.6777C16.3509 16.0606 16.0859 15.7956 16.0859 15.4688V13.8906C16.0859 11.6499 17.9089 9.82697 20.1496 9.82697C22.3903 9.82697 24.2133 11.6499 24.2133 13.8906V15.4688C24.2133 15.7956 23.9483 16.0606 23.6215 16.0606ZM17.2695 14.877H23.0297V13.8906C23.0297 12.3026 21.7377 11.0106 20.1496 11.0106C18.5615 11.0106 17.2695 12.3026 17.2695 13.8906V14.877Z" fill="#6C4B76"/>
<path d="M10.0498 16.0602C9.72297 16.0602 9.45801 15.7952 9.45801 15.4684V12.9434C9.45801 12.6165 9.72297 12.3516 10.0498 12.3516C10.3766 12.3516 10.6416 12.6165 10.6416 12.9434V15.4684C10.6416 15.7952 10.3766 16.0602 10.0498 16.0602Z" fill="#6C4B76"/>
<path d="M20.1496 11.0105C18.7791 11.0105 17.6641 9.89552 17.6641 8.525C17.6641 7.86183 17.9205 7.23275 18.3862 6.75371C18.8586 6.26769 19.4849 6 20.1496 6C20.8144 6 21.4406 6.26769 21.913 6.75371C22.3787 7.23275 22.6352 7.86183 22.6352 8.525C22.6352 9.89552 21.5201 11.0105 20.1496 11.0105ZM20.1496 7.18359C19.4439 7.18359 18.8477 7.79788 18.8477 8.525C18.8477 9.24289 19.4317 9.82695 20.1496 9.82695C20.8675 9.82695 21.4516 9.24289 21.4516 8.525C21.4516 7.79788 20.8553 7.18359 20.1496 7.18359Z" fill="#6C4B76"/>
</g>
<defs>
<clipPath id="clip0_454_2300">
<rect width="20.2" height="20.2" fill="white" transform="translate(5 6)"/>
</clipPath>
</defs>
</svg>
