<svg width="31" height="34" viewBox="0 0 31 34" fill="none" xmlns="http://www.w3.org/2000/svg">
<g clip-path="url(#clip0_454_2428)">
<path d="M15.1819 21.8474C15.005 21.8474 14.8394 21.7605 14.739 21.6148L9.00039 13.2939C8.88687 13.1293 8.874 12.9153 8.96696 12.7383C9.05989 12.5613 9.24335 12.4504 9.44327 12.4504H20.9205C21.1204 12.4504 21.3038 12.5613 21.3968 12.7383C21.4897 12.9153 21.4768 13.1293 21.3633 13.2939L15.6247 21.6148C15.5243 21.7605 15.3587 21.8474 15.1819 21.8474ZM10.4678 13.5264L15.1818 20.3618L19.8959 13.5264H10.4678Z" fill="#6C4B76"/>
<path d="M15.1816 26.1876C14.8844 26.1876 14.6436 25.9467 14.6436 25.6496V21.3098C14.6436 21.0127 14.8844 20.7718 15.1816 20.7718C15.4787 20.7718 15.7195 21.0127 15.7195 21.3098V25.6496C15.7195 25.9467 15.4787 26.1876 15.1816 26.1876Z" fill="#6C4B76"/>
<path d="M19.199 26.1876H11.1649C10.8678 26.1876 10.627 25.9467 10.627 25.6496C10.627 25.3525 10.8678 25.1116 11.1649 25.1116H19.199C19.4961 25.1116 19.737 25.3525 19.737 25.6496C19.737 25.9467 19.4961 26.1876 19.199 26.1876Z" fill="#6C4B76"/>
<path d="M15.1813 18.1174C15.1007 18.1174 15.0189 18.0992 14.9418 18.0608C14.6759 17.9284 14.5676 17.6054 14.7001 17.3394L19.291 8.1218C19.4234 7.85586 19.7464 7.74761 20.0124 7.8801C20.2784 8.01256 20.3866 8.33557 20.2541 8.60152L15.6632 17.8191C15.5691 18.0081 15.3789 18.1174 15.1813 18.1174Z" fill="#6C4B76"/>
<path d="M18.5705 16.9334C18.4679 16.9334 18.3643 16.9042 18.2726 16.843L17.4659 16.3054C17.1242 16.0775 16.6828 16.0775 16.3412 16.3053C15.6369 16.7748 14.7269 16.7748 14.0227 16.3054C13.6811 16.0776 13.2396 16.0776 12.898 16.3054L12.0913 16.843C11.8441 17.0078 11.5101 16.941 11.3453 16.6938C11.1805 16.4465 11.2473 16.1125 11.4945 15.9477L12.3012 15.4101C13.0053 14.9406 13.9154 14.9406 14.6196 15.4101C14.9612 15.6379 15.4026 15.6379 15.7443 15.4101C16.4485 14.9405 17.3586 14.9405 18.0628 15.4101L18.8693 15.9477C19.1166 16.1125 19.1834 16.4465 19.0186 16.6938C18.915 16.8493 18.7443 16.9334 18.5705 16.9334Z" fill="#6C4B76"/>
</g>
<defs>
<clipPath id="clip0_454_2428">
<rect width="18.3636" height="18.3636" fill="white" transform="translate(6 7.82355)"/>
</clipPath>
</defs>
</svg>
