<svg width="31" height="33" viewBox="0 0 31 33" fill="none" xmlns="http://www.w3.org/2000/svg">
<g clip-path="url(#clip0_454_2404)">
<path d="M24.1543 22.3652H6.8457C5.82798 22.3652 5 21.5373 5 20.5195V11.168C5 10.1502 5.82798 9.32227 6.8457 9.32227H24.1543C25.172 9.32227 26 10.1503 26 11.168V20.5195C26 21.5373 25.172 22.3652 24.1543 22.3652ZM6.8457 10.5527C6.50646 10.5527 6.23047 10.8287 6.23047 11.168V20.5195C6.23047 20.8588 6.50646 21.1348 6.8457 21.1348H24.1543C24.4935 21.1348 24.7695 20.8588 24.7695 20.5195V11.168C24.7695 10.8287 24.4935 10.5527 24.1543 10.5527H6.8457Z" fill="#6C4B76"/>
<path d="M9.59375 23.6777C9.25398 23.6777 8.97852 23.4023 8.97852 23.0625V21.75C8.97852 21.4102 9.25398 21.1348 9.59375 21.1348C9.93352 21.1348 10.209 21.4102 10.209 21.75V23.0625C10.209 23.4023 9.93352 23.6777 9.59375 23.6777Z" fill="#6C4B76"/>
<path d="M21.4062 23.6777C21.0665 23.6777 20.791 23.4023 20.791 23.0625V21.75C20.791 21.4102 21.0665 21.1348 21.4062 21.1348C21.746 21.1348 22.0215 21.4102 22.0215 21.75V23.0625C22.0215 23.4023 21.746 23.6777 21.4062 23.6777Z" fill="#6C4B76"/>
<path d="M11.2344 19.084C9.44769 19.084 7.99414 17.6305 7.99414 15.8438C7.99414 14.0571 9.44769 12.6035 11.2344 12.6035C13.0211 12.6035 14.4746 14.0571 14.4746 15.8438C14.4746 17.6304 13.0211 19.084 11.2344 19.084ZM11.2344 13.834C10.1262 13.834 9.22461 14.7355 9.22461 15.8438C9.22461 16.952 10.1262 17.8535 11.2344 17.8535C12.3426 17.8535 13.2441 16.952 13.2441 15.8438C13.2441 14.7355 12.3426 13.834 11.2344 13.834Z" fill="#6C4B76"/>
<path d="M16.8126 13.834C17.1524 13.834 17.4279 13.5585 17.4279 13.2186C17.4279 12.8788 17.1524 12.6033 16.8126 12.6033C16.4728 12.6033 16.1973 12.8788 16.1973 13.2186C16.1973 13.5585 16.4728 13.834 16.8126 13.834Z" fill="#6C4B76"/>
<path d="M19.4376 13.8339C19.7774 13.8339 20.0529 13.5584 20.0529 13.2186C20.0529 12.8788 19.7774 12.6033 19.4376 12.6033C19.0978 12.6033 18.8223 12.8788 18.8223 13.2186C18.8223 13.5584 19.0978 13.8339 19.4376 13.8339Z" fill="#6C4B76"/>
<path d="M22.0626 13.8339C22.4024 13.8339 22.6779 13.5584 22.6779 13.2186C22.6779 12.8788 22.4024 12.6033 22.0626 12.6033C21.7228 12.6033 21.4473 12.8788 21.4473 13.2186C21.4473 13.5584 21.7228 13.8339 22.0626 13.8339Z" fill="#6C4B76"/>
<path d="M16.8126 16.459C17.1524 16.459 17.4279 16.1835 17.4279 15.8437C17.4279 15.5039 17.1524 15.2284 16.8126 15.2284C16.4728 15.2284 16.1973 15.5039 16.1973 15.8437C16.1973 16.1835 16.4728 16.459 16.8126 16.459Z" fill="#6C4B76"/>
<path d="M19.4376 16.459C19.7774 16.459 20.0529 16.1835 20.0529 15.8437C20.0529 15.5039 19.7774 15.2284 19.4376 15.2284C19.0978 15.2284 18.8223 15.5039 18.8223 15.8437C18.8223 16.1835 19.0978 16.459 19.4376 16.459Z" fill="#6C4B76"/>
<path d="M22.0626 16.459C22.4024 16.459 22.6779 16.1835 22.6779 15.8437C22.6779 15.5039 22.4024 15.2284 22.0626 15.2284C21.7228 15.2284 21.4473 15.5039 21.4473 15.8437C21.4473 16.1835 21.7228 16.459 22.0626 16.459Z" fill="#6C4B76"/>
<path d="M16.8126 19.0841C17.1524 19.0841 17.4279 18.8086 17.4279 18.4688C17.4279 18.1289 17.1524 17.8535 16.8126 17.8535C16.4728 17.8535 16.1973 18.1289 16.1973 18.4688C16.1973 18.8086 16.4728 19.0841 16.8126 19.0841Z" fill="#6C4B76"/>
<path d="M19.4376 19.0841C19.7774 19.0841 20.0529 18.8086 20.0529 18.4688C20.0529 18.1289 19.7774 17.8535 19.4376 17.8535C19.0978 17.8535 18.8223 18.1289 18.8223 18.4688C18.8223 18.8086 19.0978 19.0841 19.4376 19.0841Z" fill="#6C4B76"/>
<path d="M22.0626 19.0841C22.4024 19.0841 22.6779 18.8086 22.6779 18.4688C22.6779 18.1289 22.4024 17.8535 22.0626 17.8535C21.7228 17.8535 21.4473 18.1289 21.4473 18.4688C21.4473 18.8086 21.7228 19.0841 22.0626 19.0841Z" fill="#6C4B76"/>
</g>
<defs>
<clipPath id="clip0_454_2404">
<rect width="21" height="21" fill="white" transform="translate(5 6)"/>
</clipPath>
</defs>
</svg>
