<svg width="31" height="34" viewBox="0 0 31 34" fill="none" xmlns="http://www.w3.org/2000/svg">
<g clip-path="url(#clip0_454_2444)">
<path d="M22.8405 17.9408H7.70481C6.81486 17.9408 6.09082 17.2167 6.09082 16.3268V9.26109C6.09082 8.37113 6.81486 7.64709 7.70481 7.64709H22.8405C23.7304 7.64709 24.4545 8.37117 24.4545 9.26109V16.3268C24.4545 17.2167 23.7304 17.9408 22.8405 17.9408ZM7.70481 8.72309C7.40816 8.72309 7.16681 8.96443 7.16681 9.26109V16.3268C7.16681 16.6234 7.40816 16.8648 7.70481 16.8648H22.8405C23.1371 16.8648 23.3785 16.6234 23.3785 16.3268V9.26109C23.3785 8.96443 23.1371 8.72309 22.8405 8.72309H7.70481Z" fill="#6C4B76"/>
<path d="M10.6816 11.0541H9.24698C8.94986 11.0541 8.70898 10.8133 8.70898 10.5161C8.70898 10.219 8.94986 9.97815 9.24698 9.97815H10.6816C10.9788 9.97815 11.2196 10.219 11.2196 10.5161C11.2196 10.8133 10.9788 11.0541 10.6816 11.0541Z" fill="#6C4B76"/>
<path d="M15.8469 26.0103C15.7038 26.0103 15.5609 25.9535 15.4551 25.841L14.886 25.2365C14.3663 24.7097 14.3685 23.8585 14.8925 23.3345C14.9992 23.2278 14.9992 23.0542 14.8925 22.9476C14.3664 22.4214 14.3664 21.5652 14.8925 21.039C14.9442 20.9873 14.9727 20.9186 14.9727 20.8455C14.9727 20.7724 14.9442 20.7038 14.8926 20.652L14.3187 20.0782C14.1086 19.8681 14.1086 19.5274 14.3187 19.3173C14.5288 19.1073 14.8694 19.1073 15.0795 19.3173L15.6534 19.8912C16.1796 20.4174 16.1796 21.2736 15.6534 21.7998C15.5467 21.9064 15.5467 22.08 15.6534 22.1867C16.1796 22.7129 16.1796 23.569 15.6534 24.0952C15.5467 24.2019 15.5467 24.3754 15.6534 24.4821C15.6572 24.4859 15.6611 24.4899 15.6647 24.4938L16.2386 25.1035C16.4423 25.3198 16.432 25.6603 16.2155 25.864C16.1117 25.9618 15.9792 26.0103 15.8469 26.0103Z" fill="#6C4B76"/>
<path d="M11.2561 26.0103C11.1129 26.0103 10.9701 25.9535 10.8642 25.841L10.2952 25.2365C9.77552 24.7097 9.77771 23.8585 10.3017 23.3345C10.4084 23.2278 10.4084 23.0542 10.3017 22.9476C9.77556 22.4214 9.77556 21.5652 10.3017 21.039C10.3534 20.9873 10.3819 20.9186 10.3819 20.8455C10.3819 20.7724 10.3534 20.7038 10.3018 20.652L9.72789 20.0782C9.51779 19.8681 9.51779 19.5274 9.72789 19.3173C9.93796 19.1073 10.2786 19.1073 10.4887 19.3173L11.0626 19.8912C11.5888 20.4174 11.5888 21.2736 11.0626 21.7998C10.9559 21.9064 10.9559 22.08 11.0626 22.1867C11.5888 22.7129 11.5888 23.569 11.0626 24.0952C10.9559 24.2019 10.9559 24.3754 11.0626 24.4821C11.0664 24.4859 11.0702 24.4899 11.0739 24.4938L11.6478 25.1035C11.8514 25.3198 11.8411 25.6603 11.6247 25.864C11.5209 25.9618 11.3883 26.0103 11.2561 26.0103Z" fill="#6C4B76"/>
<path d="M20.4378 26.0103C20.2946 26.0103 20.1518 25.9536 20.0459 25.841L19.4769 25.2365C19.2257 24.9819 19.0877 24.6454 19.0881 24.2875C19.0885 23.9275 19.2289 23.5889 19.4834 23.3345C19.5901 23.2278 19.5901 23.0542 19.4834 22.9476C19.2281 22.6923 19.0877 22.353 19.0881 21.992C19.0885 21.632 19.2289 21.2935 19.4834 21.039C19.535 20.9873 19.5635 20.9187 19.5635 20.8455C19.5635 20.7724 19.535 20.7038 19.4834 20.6521L18.9095 20.0782C18.6994 19.8681 18.6994 19.5275 18.9095 19.3174C19.1196 19.1073 19.4602 19.1073 19.6704 19.3174L20.2442 19.8912C20.7704 20.4174 20.7704 21.2736 20.2442 21.7998C20.1927 21.8514 20.1642 21.9201 20.1641 21.9931C20.1641 22.0355 20.1744 22.1168 20.2442 22.1867C20.7704 22.7129 20.7704 23.569 20.2442 24.0952C20.1375 24.2019 20.1375 24.3755 20.2442 24.4821C20.248 24.4859 20.2519 24.4899 20.2555 24.4938L20.8294 25.1036C21.0331 25.3199 21.0228 25.6603 20.8063 25.864C20.7025 25.9618 20.57 26.0103 20.4378 26.0103Z" fill="#6C4B76"/>
<path d="M23.9165 15.0717H6.62882C6.3317 15.0717 6.09082 14.8308 6.09082 14.5337C6.09082 14.2366 6.3317 13.9957 6.62882 13.9957H23.9165C24.2136 13.9957 24.4545 14.2366 24.4545 14.5337C24.4545 14.8308 24.2136 15.0717 23.9165 15.0717Z" fill="#6C4B76"/>
<path d="M12.9775 11.0541C13.2746 11.0541 13.5154 10.8133 13.5154 10.5161C13.5154 10.219 13.2746 9.97815 12.9775 9.97815C12.6803 9.97815 12.4395 10.219 12.4395 10.5161C12.4395 10.8133 12.6803 11.0541 12.9775 11.0541Z" fill="#6C4B76"/>
</g>
<defs>
<clipPath id="clip0_454_2444">
<rect width="18.3636" height="18.3636" fill="white" transform="translate(6.09082 7.64709)"/>
</clipPath>
</defs>
</svg>
