<svg width="63" height="63" viewBox="0 0 63 63" fill="none" xmlns="http://www.w3.org/2000/svg">
<path d="M22.2542 14.8956C23.1019 13.3466 23.7714 12.1232 22.2823 9.88557C22.0899 9.59636 22.1683 9.20599 22.4575 9.01354C22.7467 8.8211 23.1371 8.89953 23.3295 9.18874C25.24 12.0597 24.2399 13.8871 23.3575 15.4995C22.5099 17.0484 21.8404 18.2719 23.3295 20.5096C23.522 20.7987 23.4435 21.1891 23.1543 21.3816C23.0472 21.4529 22.9261 21.487 22.8064 21.487C22.603 21.487 22.4035 21.3885 22.2823 21.2064C20.3718 18.3354 21.3718 16.508 22.2542 14.8956ZM16.1106 21.1067C16.2318 21.2887 16.4313 21.3873 16.6347 21.3873C16.7544 21.3873 16.8754 21.3531 16.9826 21.2819C17.2717 21.0894 17.3501 20.6991 17.1578 20.4099C15.6687 18.1722 16.3382 16.9487 17.1859 15.3997C18.0682 13.7875 19.0682 11.9601 17.1578 9.08901C16.9653 8.7999 16.575 8.72146 16.2858 8.91382C15.9966 9.10626 15.9182 9.49663 16.1106 9.78584C17.5996 12.0235 16.9301 13.247 16.0824 14.7959C15.2002 16.4083 14.2001 18.2357 16.1106 21.1067ZM52.0877 15.3998C52.97 13.7876 53.97 11.9601 52.0596 9.0891C51.8671 8.79999 51.4767 8.72155 51.1875 8.91391C50.8984 9.10635 50.82 9.49672 51.0123 9.78593C52.5014 12.0236 51.8319 13.2471 50.9842 14.796C50.1019 16.4083 49.1018 18.2357 51.0123 21.1067C51.1335 21.2887 51.3331 21.3873 51.5365 21.3873C51.6562 21.3873 51.7772 21.3531 51.8844 21.2819C52.1735 21.0894 52.2519 20.6991 52.0596 20.4099C50.5704 18.1722 51.24 16.9488 52.0877 15.3998ZM44.8407 21.1067C44.9619 21.2887 45.1614 21.3873 45.3649 21.3873C45.4845 21.3873 45.6055 21.3531 45.7127 21.2819C46.0019 21.0894 46.0803 20.6991 45.8879 20.4099C44.3989 18.1722 45.0684 16.9487 45.9161 15.3998C46.7983 13.7875 47.7985 11.9601 45.8879 9.0891C45.6955 8.79999 45.3052 8.72155 45.0159 8.91391C44.7268 9.10635 44.6484 9.49672 44.8407 9.78593C46.3298 12.0236 45.6603 13.2471 44.8126 14.796C43.9302 16.4083 42.9302 18.2357 44.8407 21.1067ZM51.5589 34.6096V46.6289C51.5589 48.5436 49.3848 50.2029 45.2718 51.4273C41.4508 52.5649 36.382 53.1914 30.9992 53.1914C25.6164 53.1914 20.5476 52.5649 16.7265 51.4273C12.6135 50.2029 10.4395 48.5435 10.4395 46.6289V34.6096C10.4395 32.6343 12.7362 30.9411 17.0812 29.7092L20.9434 26.8473C21.3857 26.5193 22.9709 26.068 25.9334 25.2974C26.3694 25.184 26.7137 25.0944 26.9113 25.0391C28.121 24.7048 35.8641 25.4297 36.662 25.6363L41.5423 26.9005C42.1759 27.0647 42.6923 27.5286 42.9237 28.1415L43.3649 29.3109C48.6518 30.5332 51.5589 32.4093 51.5589 34.6096ZM16.3285 31.8325C15.9923 32.0817 15.9216 32.5584 16.171 32.8946C16.2919 33.0575 16.4689 33.1637 16.6695 33.1935C16.87 33.2235 17.0704 33.1732 17.2333 33.0523L22.3908 29.2305C22.4525 29.1848 22.5219 29.1508 22.5958 29.1301L27.1365 27.8595C27.3352 27.8039 27.5486 27.8495 27.7074 27.9812C27.8663 28.1129 27.9504 28.3142 27.9325 28.5199C27.7687 30.3996 27.6055 32.2795 27.4424 34.1593L27.349 35.2351C28.751 35.3416 30.2088 35.3955 31.6916 35.3955C32.7583 35.3955 33.8194 35.3674 34.8535 35.3115L34.919 34.5569C35.0816 32.6834 35.2442 30.8098 35.4075 28.9364C35.4236 28.7521 35.52 28.5842 35.6711 28.4774C35.8221 28.3706 36.0126 28.3358 36.1917 28.3821L40.148 29.407C40.3459 29.4583 40.5066 29.6026 40.5787 29.794L42.148 33.956C42.2197 34.1463 42.361 34.2971 42.546 34.3808C42.7311 34.4647 42.9376 34.4713 43.1276 34.3998C43.5199 34.252 43.7189 33.8127 43.5712 33.4203L41.7471 28.5858C41.6599 28.3548 41.4654 28.1799 41.2269 28.1182L36.3467 26.854C35.5505 26.6478 28.0729 26.0317 27.2481 26.251C27.0417 26.3087 26.6924 26.3996 26.2502 26.5147C25.1166 26.8095 22.1054 27.5929 21.6856 27.8627L16.3285 31.8325ZM43.5709 35.5768C43.562 35.5802 43.5529 35.5823 43.544 35.5855C44.5124 35.3121 45.4413 34.9898 46.3053 34.6098C45.8297 34.4006 45.3152 34.2104 44.8442 34.0507C44.7201 34.724 44.2569 35.3184 43.5709 35.5768ZM15.6871 34.6067L15.6912 34.6085L15.6931 34.6035V34.6159C15.6923 34.6131 15.6893 34.6084 15.6871 34.6067ZM15.6932 34.6093C20.2213 36.5999 26.5148 37.0172 30.9992 37.0172C34.5406 37.0172 39.21 36.7561 43.245 35.6677C42.8363 35.7481 42.414 35.7019 42.0272 35.5266C41.5361 35.3043 41.1611 34.9039 40.9711 34.3994L40.4251 32.9514C39.1471 32.7267 37.7869 32.5501 36.3667 32.426C36.302 33.1725 36.237 33.919 36.1722 34.6656L36.0597 35.9617C36.0329 36.2715 35.7836 36.5152 35.4732 36.5349C34.2436 36.6135 32.9714 36.6532 31.6917 36.6532C29.9499 36.6532 28.241 36.5802 26.6126 36.4364C26.267 36.4058 26.0114 36.1013 26.0414 35.7555L26.1893 34.0504C26.2379 33.49 26.2867 32.9298 26.3353 32.3694C23.7022 32.5654 21.2821 32.932 19.1335 33.4622C18.9841 33.4989 18.7983 33.5484 18.6023 33.6032L17.9823 34.0627C17.5497 34.3835 17.018 34.5169 16.4849 34.4376C16.4009 34.4251 16.3191 34.4059 16.2386 34.3835C16.0437 34.4599 15.8609 34.5355 15.6932 34.6093ZM26.6005 29.3156L23.0464 30.3101L21.0902 31.7597C22.7584 31.4553 24.5499 31.2341 26.4456 31.0999C26.4972 30.5052 26.5488 29.9104 26.6005 29.3156ZM39.9119 31.5905L39.5169 30.5429L36.5961 29.7863C36.5559 30.2486 36.5158 30.7109 36.4756 31.1731C37.6649 31.2769 38.8145 31.4169 39.9119 31.5905ZM50.3011 46.6289V36.9859C49.254 37.9076 47.5646 38.7254 45.2718 39.408C41.4508 40.5456 36.382 41.1721 30.9992 41.1721C25.6164 41.1721 20.5476 40.5456 16.7265 39.408C14.4337 38.7254 12.7443 37.9076 11.6973 36.9859V46.6289C11.6973 47.8742 13.7115 49.2175 17.0854 50.2218C20.7932 51.3256 25.7345 51.9336 30.9992 51.9336C36.2639 51.9336 41.2052 51.3256 44.9129 50.2218C48.2868 49.2175 50.3011 47.8742 50.3011 46.6289ZM50.3011 34.6096C50.3011 33.2359 47.827 31.7581 43.9035 30.7381L44.6275 32.657C45.2622 32.8563 46.0786 33.1355 46.8123 33.4583C47.2758 33.6624 47.5636 34.1035 47.5636 34.6096C47.5636 35.1159 47.2757 35.5571 46.8123 35.7608C42.0892 37.8387 35.6061 38.2749 30.9992 38.2749C26.3923 38.2749 19.9092 37.8387 15.1861 35.7608C14.7228 35.557 14.4348 35.1158 14.4348 34.6096C14.4348 34.1454 14.6773 33.7366 15.0746 33.5146C14.7444 32.9898 14.6845 32.3612 14.8696 31.8043C12.8454 32.6674 11.6974 33.6599 11.6974 34.6096C11.6974 35.8549 13.7116 37.1982 17.0855 38.2025C20.7933 39.3063 25.7346 39.9143 30.9992 39.9143C36.2638 39.9143 41.2052 39.3063 44.9129 38.2025C48.2868 37.1981 50.3011 35.8549 50.3011 34.6096ZM46.3113 34.6125L46.3072 34.6107L46.3053 34.6158V34.6034C46.3061 34.6061 46.309 34.6107 46.3113 34.6125ZM28.0642 20.818C28.0642 18.6193 29.853 16.8305 32.0517 16.8305C34.2505 16.8305 36.0394 18.6193 36.0394 20.818C36.0394 23.0168 34.2505 24.8056 32.0517 24.8056C29.853 24.8056 28.0642 23.0168 28.0642 20.818ZM29.322 20.818C29.322 22.3233 30.5466 23.5478 32.0517 23.5478C33.557 23.5478 34.7815 22.3233 34.7815 20.818C34.7815 19.3129 33.557 18.0883 32.0517 18.0883C30.5466 18.0883 29.322 19.3129 29.322 20.818Z" fill="#6C4B76"/>
</svg>
