<svg width="31" height="33" viewBox="0 0 31 33" fill="none" xmlns="http://www.w3.org/2000/svg">
<g clip-path="url(#clip0_454_2480)">
<path d="M22.3639 9.75369C20.6641 8.05385 18.404 7.11768 16 7.11768C13.596 7.11768 11.3359 8.05385 9.63602 9.75369C7.93614 11.4536 7 13.7137 7 16.1177C7 18.5217 7.93614 20.7818 9.63602 22.4816C11.3359 24.1815 13.596 25.1177 16 25.1177C18.404 25.1177 20.6641 24.1815 22.3639 22.4816C24.0638 20.7818 25 18.5217 25 16.1177C25 13.7137 24.0638 11.4536 22.3639 9.75369ZM16 24.063C11.6189 24.063 8.05469 20.4987 8.05469 16.1177C8.05469 11.7366 11.6189 8.17236 16 8.17236C20.3811 8.17236 23.9453 11.7366 23.9453 16.1177C23.9453 20.4987 20.3811 24.063 16 24.063Z" fill="#6C4B76"/>
<path d="M20.3 13.2299C20.0941 13.024 19.7601 13.024 19.5542 13.2299L14.8975 17.8867L12.4461 15.4354C12.2402 15.2294 11.9063 15.2294 11.7004 15.4354C11.4944 15.6413 11.4944 15.9752 11.7004 16.1811L14.5246 19.0053C14.6275 19.1083 14.7625 19.1598 14.8974 19.1598C15.0324 19.1598 15.1674 19.1083 15.2703 19.0053L20.3 13.9757C20.5059 13.7698 20.5059 13.4358 20.3 13.2299Z" fill="#6C4B76"/>
</g>
<defs>
<clipPath id="clip0_454_2480">
<rect width="18" height="18" fill="white" transform="translate(7 7.11768)"/>
</clipPath>
</defs>
</svg>
