<svg width="31" height="34" viewBox="0 0 31 34" fill="none" xmlns="http://www.w3.org/2000/svg">
<g clip-path="url(#clip0_651_762)">
<path d="M11.7003 10.4745C11.7003 10.8243 11.4167 11.1079 11.0669 11.1079C10.7171 11.1079 10.4336 10.8243 10.4336 10.4745C10.4336 10.1247 10.7171 9.84119 11.0669 9.84119C11.4167 9.84119 11.7003 10.1247 11.7003 10.4745Z" fill="#6C4B76"/>
<path d="M12.9673 11.1079C13.3171 11.1079 13.6007 10.8243 13.6007 10.4745C13.6007 10.1247 13.3171 9.84119 12.9673 9.84119C12.6175 9.84119 12.334 10.1247 12.334 10.4745C12.334 10.8243 12.6175 11.1079 12.9673 11.1079Z" fill="#6C4B76"/>
<path fill-rule="evenodd" clip-rule="evenodd" d="M15.5003 14.2745C12.702 14.2745 10.4336 16.5429 10.4336 19.3412C10.4336 22.1395 12.702 24.4079 15.5003 24.4079C18.2985 24.4079 20.5669 22.1395 20.5669 19.3412C20.5669 16.5429 18.2985 14.2745 15.5003 14.2745ZM11.7003 19.3412C11.7003 17.2425 13.4016 15.5412 15.5003 15.5412C17.5989 15.5412 19.3003 17.2425 19.3003 19.3412C19.3003 21.4399 17.5989 23.1412 15.5003 23.1412C13.4016 23.1412 11.7003 21.4399 11.7003 19.3412Z" fill="#6C4B76"/>
<path fill-rule="evenodd" clip-rule="evenodd" d="M7.90039 9.84116C7.90039 8.79182 8.75105 7.94116 9.80039 7.94116H21.2004C22.2498 7.94116 23.1004 8.79182 23.1004 9.84116V25.0412C23.1004 26.0905 22.2498 26.9412 21.2004 26.9412H9.80039C8.75105 26.9412 7.90039 26.0905 7.90039 25.0412V9.84116ZM9.80039 9.20783C9.45061 9.20783 9.16706 9.49138 9.16706 9.84116V11.7412H21.8337V9.84116C21.8337 9.49138 21.5502 9.20783 21.2004 9.20783H9.80039ZM9.16706 25.0412V13.0078H21.8337V25.0412C21.8337 25.391 21.5502 25.6745 21.2004 25.6745H9.80039C9.45061 25.6745 9.16706 25.391 9.16706 25.0412Z" fill="#6C4B76"/>
</g>
<defs>
<clipPath id="clip0_651_762">
<rect width="19" height="19" fill="white" transform="translate(6 7.94116)"/>
</clipPath>
</defs>
</svg>
