<svg width="24" height="24" viewBox="0 0 24 24" fill="none" xmlns="http://www.w3.org/2000/svg">
<mask id="mask0_107_821" style="mask-type:luminance" maskUnits="userSpaceOnUse" x="3" y="3" width="18" height="18">
<path d="M3 3H21V21H3V3Z" fill="white"/>
</mask>
<g mask="url(#mask0_107_821)">
<path d="M19.3429 7.48123C17.1592 7.48123 15.389 5.71101 15.389 3.52735H12.5647V15.1066C12.5647 16.5104 11.4268 17.6484 10.0229 17.6484C8.61914 17.6484 7.48116 16.5104 7.48116 15.1066C7.48116 13.7029 8.61914 12.5649 10.0229 12.5649V9.74061C7.05943 9.74061 4.65692 12.1431 4.65692 15.1066C4.65692 18.0702 7.05943 20.4727 10.0229 20.4727C12.9866 20.4727 15.389 18.0702 15.389 15.1066V9.03299C16.5019 9.8336 17.8672 10.3055 19.3429 10.3055V7.48123Z" stroke="white" stroke-miterlimit="10" stroke-linecap="round" stroke-linejoin="round"/>
</g>
</svg>
