<svg width="181" height="187" viewBox="0 0 181 187" fill="none" xmlns="http://www.w3.org/2000/svg">
<g clip-path="url(#clip0_83_403)">
<path d="M21.4773 174.926L12.4659 150.908H6.64697L21.4773 187.449L36.3077 150.908H30.4884L21.4773 174.926Z" fill="black"/>
<path d="M46.3454 150.908H41.0928V186.833H46.3454V150.908Z" fill="black"/>
<path d="M59.3173 150.908H54.0647V186.833H74.0439V181.701H59.3173V150.908Z" fill="black"/>
<path d="M92.9915 165.843H87.9447C84.9071 165.843 82.6921 163.687 82.6921 160.813C82.6921 157.938 84.9071 155.783 87.9447 155.783H98.5529V150.907H87.326C86.0167 150.901 84.719 151.152 83.5074 151.647C82.2959 152.142 81.1944 152.871 80.2662 153.791C79.3381 154.711 78.6015 155.806 78.099 157.011C77.5964 158.216 77.3376 159.508 77.3376 160.813C77.3376 162.118 77.5964 163.41 78.099 164.615C78.6015 165.82 79.3381 166.914 80.2662 167.835C81.1944 168.755 82.2959 169.484 83.5074 169.978C84.719 170.473 86.0167 170.725 87.326 170.718H92.0644C92.7923 170.711 93.5144 170.848 94.1888 171.121C94.8633 171.394 95.4768 171.798 95.9939 172.308C96.5111 172.819 96.9215 173.426 97.2017 174.096C97.4818 174.766 97.6261 175.484 97.6261 176.21C97.6261 176.935 97.4818 177.653 97.2017 178.323C96.9215 178.993 96.5111 179.6 95.9939 180.111C95.4768 180.622 94.8633 181.025 94.1888 181.298C93.5144 181.571 92.7923 181.708 92.0644 181.701H79.0366V186.832H92.5786C93.9762 186.833 95.3603 186.559 96.651 186.025C97.9418 185.491 99.1139 184.707 100.1 183.72C101.086 182.733 101.866 181.561 102.396 180.272C102.926 178.983 103.195 177.602 103.187 176.209C103.187 170.666 98.6558 165.843 92.9915 165.843Z" fill="black"/>
<path d="M124.809 150.292C114.099 150.292 106.323 158.605 106.323 168.921C106.323 179.187 114.099 187.5 124.809 187.5C135.521 187.5 143.295 179.187 143.295 168.921C143.295 158.605 135.521 150.292 124.809 150.292ZM124.809 182.369C117.343 182.369 111.833 176.672 111.833 168.921C111.833 161.12 117.343 155.425 124.809 155.425C132.276 155.425 137.786 161.12 137.786 168.921C137.786 176.672 132.276 182.369 124.809 182.369Z" fill="black"/>
<path d="M153.383 150.908H148.542V186.833H153.486V159.067L176.761 187.45V150.908H171.817V172.924L153.383 150.908Z" fill="black"/>
<path d="M112.294 -0.5L106.669 8.70035L127.121 49.8823H102.753L74.5296 105.472L44.7758 47.8876L39.1005 56.7931L51.3026 80.4074H32.3017L0.5 138.358H181.254L112.294 -0.5ZM37.7183 89.5126H56.0073L74.6012 125.497L108.368 58.9874H131.643L166.539 129.253H15.9095L37.7183 89.5126Z" fill="black"/>
</g>
<defs>
<clipPath id="clip0_83_403">
<rect width="181" height="187" fill="white"/>
</clipPath>
</defs>
</svg>
